<!--<?xml version="1.0" encoding="UTF-8"?>-->
<svg version="1.1" xmlns="http://www.w3.org/2000/svg" width="500" height="500">
<path d="M0 0 C1.88247204 0.89522004 3.80260451 1.71292794 5.7421875 2.4765625 C20.62540658 8.35106669 33.81212977 17.44369315 46.265625 27.390625 C48.48020497 29.25940578 48.48020497 29.25940578 50.63671875 30.25390625 C50.63671875 30.91390625 50.63671875 31.57390625 50.63671875 32.25390625 C51.18714844 32.48851562 51.73757813 32.723125 52.3046875 32.96484375 C55.24499698 34.59014045 57.46917244 36.61283848 59.94921875 38.87890625 C60.85285156 39.69617188 61.75648438 40.5134375 62.6875 41.35546875 C66.26050616 44.76158032 69.43621194 48.50134791 72.63671875 52.25390625 C73.21591064 52.92695801 73.79510254 53.60000977 74.3918457 54.29345703 C81.73067811 62.86757912 88.29751151 71.2678578 93.63671875 81.25390625 C94.26707031 82.30320312 94.89742188 83.3525 95.546875 84.43359375 C100.87468996 93.32355088 104.91503539 102.54356822 108.77758789 112.15136719 C109.55652406 114.05764691 110.38307705 115.94429696 111.21484375 117.828125 C114.0906245 124.7568605 115.89958498 131.97110044 117.63671875 139.25390625 C117.84006836 140.1061377 118.04341797 140.95836914 118.25292969 141.83642578 C127.23253335 181.69908341 124.1059675 229.53792981 105.63671875 266.25390625 C104.84147383 268.02914996 104.04639281 269.80446901 103.25415039 271.58105469 C97.89416652 283.46262883 91.24907192 294.44132803 83.42578125 304.8671875 C81.80987095 307.02291063 80.28030404 309.21681201 78.76171875 311.44140625 C77.70984375 312.83359375 77.70984375 312.83359375 76.63671875 314.25390625 C75.97671875 314.25390625 75.31671875 314.25390625 74.63671875 314.25390625 C74.37503906 314.84300781 74.11335938 315.43210937 73.84375 316.0390625 C72.57249125 318.37176059 71.23441344 319.85744993 69.32421875 321.69140625 C68.69773437 322.29984375 68.07125 322.90828125 67.42578125 323.53515625 C66.54019531 324.3859375 66.54019531 324.3859375 65.63671875 325.25390625 C64.83234375 326.05828125 64.02796875 326.86265625 63.19921875 327.69140625 C62.35359375 328.53703125 61.50796875 329.38265625 60.63671875 330.25390625 C60.11078125 330.81464844 59.58484375 331.37539063 59.04296875 331.953125 C49.25908799 342.17230554 37.83739955 350.17809376 25.63671875 357.25390625 C24.51523437 357.92164063 23.39375 358.589375 22.23828125 359.27734375 C1.73585903 371.38596255 -19.91935533 379.15051335 -43.36328125 383.25390625 C-44.2562793 383.43050781 -45.14927734 383.60710937 -46.06933594 383.7890625 C-56.545795 385.68097384 -67.00291961 385.65207567 -77.61328125 385.62890625 C-78.58993744 385.62803009 -79.56659363 385.62715393 -80.57284546 385.62625122 C-107.93078867 385.54529979 -134.62811909 381.69236172 -159.36328125 369.25390625 C-160.70753857 368.63604245 -162.05411418 368.02320982 -163.40234375 367.4140625 C-171.83592606 363.58349956 -179.66448105 359.43760761 -187.36328125 354.25390625 C-189.23653186 353.08443275 -191.11155213 351.91778937 -192.98828125 350.75390625 C-197.97460138 347.57557558 -203.03411793 344.30514797 -207.36328125 340.25390625 C-207.36328125 339.59390625 -207.36328125 338.93390625 -207.36328125 338.25390625 C-207.89308594 338.03992188 -208.42289062 337.8259375 -208.96875 337.60546875 C-212.28374721 335.73436103 -214.91650729 333.21739266 -217.67578125 330.62890625 C-218.25030029 330.09346191 -218.82481934 329.55801758 -219.41674805 329.00634766 C-228.21433499 320.71968459 -228.21433499 320.71968459 -231.36328125 316.25390625 C-231.36328125 315.59390625 -231.36328125 314.93390625 -231.36328125 314.25390625 C-232.02328125 314.25390625 -232.68328125 314.25390625 -233.36328125 314.25390625 C-235.0625 312.19921875 -235.0625 312.19921875 -237.05078125 309.37890625 C-238.12392578 307.86296875 -238.12392578 307.86296875 -239.21875 306.31640625 C-240.28029297 304.80046875 -240.28029297 304.80046875 -241.36328125 303.25390625 C-242.25466797 302.01640625 -242.25466797 302.01640625 -243.1640625 300.75390625 C-268.16692987 265.80736978 -279.23991225 224.98312286 -279.36328125 182.25390625 C-279.36730957 181.40054688 -279.37133789 180.5471875 -279.37548828 179.66796875 C-279.28820108 153.95418593 -273.70634014 127.36993589 -262.36328125 104.25390625 C-261.53378062 102.42500726 -260.70438522 100.59605943 -259.87719727 98.76611328 C-254.25142102 86.4267974 -247.23832223 75.26464537 -239.36328125 64.25390625 C-238.75742188 63.39667969 -238.1515625 62.53945312 -237.52734375 61.65625 C-234.56003243 57.55267556 -234.56003243 57.55267556 -233.36328125 56.25390625 C-232.70328125 56.25390625 -232.04328125 56.25390625 -231.36328125 56.25390625 C-231.12867188 55.70347656 -230.8940625 55.15304688 -230.65234375 54.5859375 C-225.89788972 45.98469794 -216.40457459 36.41608755 -207.36328125 32.25390625 C-207.36328125 31.59390625 -207.36328125 30.93390625 -207.36328125 30.25390625 C-205.30859375 28.5546875 -205.30859375 28.5546875 -202.48828125 26.56640625 C-201.47765625 25.85097656 -200.46703125 25.13554688 -199.42578125 24.3984375 C-198.41515625 23.69074219 -197.40453125 22.98304687 -196.36328125 22.25390625 C-195.53828125 21.65964844 -194.71328125 21.06539062 -193.86328125 20.453125 C-140.3381991 -17.84195845 -60.43111833 -29.52148047 0 0 Z " fill="#FEB14C" transform="translate(328.36328125,64.74609375)"/>
<path d="M0 0 C3.49890004 2.11391877 4.70578686 3.11736059 6 7 C6.4413121 12.38811289 6.07424894 16.94401821 4 22 C2.02 22 0.04 22 -2 22 C-1.6390625 22.88300781 -1.278125 23.76601562 -0.90625 24.67578125 C-0.21015625 26.47595703 -0.21015625 26.47595703 0.5 28.3125 C1.19609375 30.07013672 1.19609375 30.07013672 1.90625 31.86328125 C3.52222887 36.81852896 3.21198758 41.84811301 3 47 C3.64437012 46.68248779 4.28874023 46.36497559 4.95263672 46.0378418 C7.92294525 44.57981121 10.89887536 43.13361939 13.875 41.6875 C14.88820313 41.18798828 15.90140625 40.68847656 16.9453125 40.17382812 C23.19813451 37.1476226 29.29493622 34.79152018 36 33 C37.4512699 32.57546905 38.90181679 32.14845714 40.3515625 31.71875 C57.14705288 26.88039115 72.49632212 24.5157794 90 25 C90.33 25.99 90.66 26.98 91 28 C89.3125 30.875 89.3125 30.875 87 34 C86.0409375 35.299375 86.0409375 35.299375 85.0625 36.625 C82.90371209 39.11087699 80.56601911 40.94718471 78 43 C77.43152344 43.76183594 76.86304688 44.52367187 76.27734375 45.30859375 C73.5391161 48.54468097 70.54413207 50.68882672 67.0625 53.0625 C65.84411296 53.9061975 64.62664877 54.75122941 63.41015625 55.59765625 C62.82911133 56.00129395 62.24806641 56.40493164 61.64941406 56.82080078 C59.3599313 58.45759796 57.18478973 60.2270031 55 62 C51.43481866 64.48012615 47.79746518 66.72473867 44.01171875 68.8515625 C39.96519297 71.16161799 35.98889034 73.59221911 32 76 C33.18396521 79.26285248 34.35699449 81.73936652 36.6875 84.3125 C38.41854178 86.23775623 40.12845808 88.15618692 41.7734375 90.15625 C45.53113917 94.68518302 48.01597013 97.60679035 54.09765625 98.20703125 C59.12732025 98.43374398 62.81629438 98.042695 67 95 C72.77118799 87.847673 75.14316647 79.49472316 76.4375 70.5625 C78.52138469 57.6967163 78.52138469 57.6967163 82 53 C86.00658129 50.4070142 89.35346206 50.77516752 94 51 C94.66 51.33 95.32 51.66 96 52 C97.60795896 52.11701492 99.22014165 52.17874401 100.83203125 52.2109375 C101.79560547 52.23929688 102.75917969 52.26765625 103.75195312 52.296875 C105.78042119 52.34865466 107.80909322 52.3930146 109.83789062 52.4296875 C119.10625739 52.72607764 119.10625739 52.72607764 123 56 C125.60609964 59.41488918 126.36667611 61.72211203 126 66 C125.34 66 124.68 66 124 66 C124 66.66 124 67.32 124 68 C122.14375 68.0309375 122.14375 68.0309375 120.25 68.0625 C113.6096707 68.83071559 108.18187638 71.87469812 103 76 C100.90375243 78.83291339 99.95964634 81.63069224 99 85 C98.37905112 86.87634552 97.75377136 88.75126134 97.125 90.625 C96.79242188 91.635625 96.45984375 92.64625 96.1171875 93.6875 C92.50244122 104.40534911 88.9714903 113.66901111 81 122 C80.16855469 122.89138672 80.16855469 122.89138672 79.3203125 123.80078125 C72.21548014 130.65065551 61.77087193 132.44641058 52.5546875 135.0703125 C49.8524229 135.72218221 49.8524229 135.72218221 49 138 C48.13294446 145.59964958 49.86537068 151.60154167 52.75 158.5625 C53.27207031 159.88411133 53.27207031 159.88411133 53.8046875 161.23242188 C55.48553265 165.45009813 57.27133215 169.58498072 59.20703125 173.69140625 C60.9588497 177.59060117 61.59824193 181.09012405 61.9375 185.375 C62.75797886 192.48345912 64.70249206 197.71655968 68 204 C68.57398782 205.21380456 69.14270953 206.43010891 69.70703125 207.6484375 C70.30396546 208.91179975 70.90161501 210.17482426 71.5 211.4375 C72.31984375 213.16806641 72.31984375 213.16806641 73.15625 214.93359375 C75.70542497 219.17321737 78.31104521 221.43701507 83 223 C83.33 224.65 83.66 226.3 84 228 C78.06 228 72.12 228 66 228 C65.566875 226.63875 65.13375 225.2775 64.6875 223.875 C63.76087623 221.0689035 62.80836536 218.6320615 61.4375 216 C60 213 60 213 59.3125 209.125 C57.92720868 202.29013291 54.30345464 196.26154693 51.10107422 190.13476562 C50.0182603 188.03540312 48.97350248 185.92157478 47.94140625 183.796875 C42.91941678 173.47132335 37.3936887 163.80076128 30.26171875 154.75390625 C29 153 29 153 27.95703125 150.83984375 C27.13717396 148.8239539 27.13717396 148.8239539 25 148 C24.74734375 148.52207031 24.4946875 149.04414063 24.234375 149.58203125 C23.2881549 151.43554467 22.28818745 153.26170378 21.265625 155.07421875 C17.45049921 161.87175123 14.30258758 168.51987128 11.875 175.9375 C10.06022517 181.46844713 8.2055711 185.76676478 4.3828125 190.25 C-1.94762964 198.261407 -3.16857757 208.53738963 -3.55859375 218.36328125 C-3.37425781 219.23339844 -3.18992187 220.10351562 -3 221 C-1.34107472 222.01279055 0.32544956 223.01325859 2 224 C2 225.65 2 227.3 2 229 C-3.28 229 -8.56 229 -14 229 C-15.02291109 224.90835562 -14.78368224 223.9184112 -14 220 C-14.03913608 218.63493369 -14.09424824 217.27028585 -14.16015625 215.90625 C-14.18700225 210.67864943 -12.74739371 206.51714864 -10.875 201.6875 C-10.22542513 199.92585428 -9.57969437 198.16278711 -8.9375 196.3984375 C-8.61136719 195.50479492 -8.28523438 194.61115234 -7.94921875 193.69042969 C-5.59637631 187.02162215 -3.68530878 180.20698935 -1.70849609 173.41943359 C-1.00041228 171.0014079 -0.27779759 168.58817601 0.44921875 166.17578125 C0.90373176 164.65887991 1.35816271 163.14195398 1.8125 161.625 C2.01955566 160.94155518 2.22661133 160.25811035 2.43994141 159.55395508 C3.57698862 155.72372486 4.43067577 151.95466077 5 148 C3.04707031 148.06380859 3.04707031 148.06380859 1.0546875 148.12890625 C-3.85001007 148.12219274 -8.17492726 147.27928009 -12.875 145.9375 C-13.65149902 145.7206958 -14.42799805 145.5038916 -15.22802734 145.28051758 C-21.97139306 143.26507366 -27.38738376 140.28981902 -33 136 C-32.649375 137.175625 -32.29875 138.35125 -31.9375 139.5625 C-30.1352571 146.90020325 -32.57561855 153.12028597 -35 160 C-36.04108237 163.071193 -37.06936338 166.1458794 -38.08203125 169.2265625 C-38.77724371 171.32699164 -39.50585825 173.41640311 -40.25 175.5 C-42.04464739 183.87502117 -41.53687932 191.25488927 -38 199 C-37.55682089 200.26886401 -37.11945628 201.53977168 -36.6875 202.8125 C-34.28930405 209.24170615 -30.79842903 215.30235646 -27 221 C-25.989375 221.45375 -24.97875 221.9075 -23.9375 222.375 C-22.968125 222.91125 -21.99875 223.4475 -21 224 C-20.505 226.475 -20.505 226.475 -20 229 C-24.95 229 -29.9 229 -35 229 C-35.99 226.525 -35.99 226.525 -37 224 C-42.24134564 211.43858808 -48.44498623 199.33252066 -56 188 C-56.34164283 182.96076825 -55.61061991 178.53023794 -54.5 173.625 C-53.27437305 167.97338116 -52.69564203 162.78280135 -53 157 C-71.87210365 171.17687013 -84.28731963 186.63322693 -92 209 C-92.3815625 210.06734375 -92.763125 211.1346875 -93.15625 212.234375 C-94.98872257 217.4961891 -96.49488876 222.44377633 -97 228 C-98.32 228.33 -99.64 228.66 -101 229 C-106.88183807 222.92560175 -106.88183807 222.92560175 -107.375 219.0625 C-107.25125 218.381875 -107.1275 217.70125 -107 217 C-105.68 216.67 -104.36 216.34 -103 216 C-102.938125 215.236875 -102.87625 214.47375 -102.8125 213.6875 C-102.08360281 210.37942813 -101.16383549 208.12748598 -99.6875 205.125 C-95.5508214 196.36145835 -93.5985186 186.84150426 -92.0625 177.3125 C-91.05080804 171.97649638 -88.22461894 169.57031925 -83.875 166.5 C-81.49944336 164.59955469 -80.47969224 162.66344603 -79 160 C-78.6184375 159.43410156 -78.236875 158.86820313 -77.84375 158.28515625 C-71.89483704 149.4161976 -68.82979676 139.85012063 -68.9375 129.1875 C-68.94652344 128.02605469 -68.95554688 126.86460937 -68.96484375 125.66796875 C-68.97644531 124.78753906 -68.98804688 123.90710938 -69 123 C-69.17015625 123.57854736 -69.3403125 124.15709473 -69.515625 124.75317383 C-76.45609957 147.9442343 -76.45609957 147.9442343 -84 155 C-87.50240877 156.72188437 -90.10469253 157.222589 -94 157 C-94 156.34 -94 155.68 -94 155 C-92.25 153.7109375 -92.25 153.7109375 -90 152.375 C-89.2575 151.92898438 -88.515 151.48296875 -87.75 151.0234375 C-86.88375 150.51683594 -86.88375 150.51683594 -86 150 C-86.99 149.67 -87.98 149.34 -89 149 C-88.01 147.02 -88.01 147.02 -87 145 C-86.34 145 -85.68 145 -85 145 C-81.4176122 138.08772751 -79.16636147 130.76927299 -77.23950195 123.25146484 C-75.24552938 115.54017004 -73.21523594 109.20599316 -68 103 C-67.54238281 102.40832031 -67.08476562 101.81664062 -66.61328125 101.20703125 C-64.56921017 98.62278523 -62.76142259 96.8409484 -60 95 C-59.32707965 93.33584844 -58.66119449 91.66884513 -58 90 C-52.36995714 82.52627277 -45.30875719 76.74666712 -38 71 C-36.91257872 70.06724477 -35.82836535 69.13071023 -34.75 68.1875 C-30.65450472 64.92971966 -26.27883027 61.84461284 -21 61 C-21.66 60.01 -22.32 59.02 -23 58 C-23.22467053 55.26602227 -23.33168957 52.6703897 -23.3125 49.9375 C-23.31048584 49.17687256 -23.30847168 48.41624512 -23.30639648 47.63256836 C-23.18766907 40.94473149 -22.00723981 35.01447962 -19 29 C-20.98 29.66 -22.96 30.32 -25 31 C-25 30.34 -25 29.68 -25 29 C-27.31 29 -29.62 29 -32 29 C-32.495 28.01 -32.495 28.01 -33 27 C-32.05125 26.566875 -31.1025 26.13375 -30.125 25.6875 C-26.79958063 24.20697799 -26.79958063 24.20697799 -25 21 C-26.32 21 -27.64 21 -29 21 C-27.55901187 17.47417797 -25.84359196 15.91761886 -22.75 13.75 C-18.7875242 10.80044004 -16.0353609 7.7865459 -13.2890625 3.69921875 C-9.78514987 -0.91957517 -5.28895115 -0.77014552 0 0 Z " fill="#595B84" transform="translate(244,129)"/>
<path d="M0 0 C1.9587043 0.14076315 3.91696093 0.2877676 5.875 0.4375 C7.51082031 0.55931641 7.51082031 0.55931641 9.1796875 0.68359375 C12 1 12 1 14 2 C15.70363822 2.22622081 17.41328701 2.40888473 19.125 2.5625 C20.03507812 2.64628906 20.94515625 2.73007812 21.8828125 2.81640625 C22.58148438 2.87699219 23.28015625 2.93757813 24 3 C24.33 5.97 24.66 8.94 25 12 C26.32 12.33 27.64 12.66 29 13 C29.99 12.34 30.98 11.68 32 11 C32.66 12.65 33.32 14.3 34 16 C34.66 16 35.32 16 36 16 C36.185625 15.0409375 36.185625 15.0409375 36.375 14.0625 C36.58125 13.381875 36.7875 12.70125 37 12 C37.66 11.67 38.32 11.34 39 11 C37.72122533 15.12861536 36.15214565 18.81228564 34.125 22.625 C31.99198757 26.77767637 30.34606857 30.78195728 29 35.25 C27.51349139 40.01302132 25.59386332 43.24346974 22.453125 47.07421875 C16.20189049 55.35878492 14.84035465 65.31235551 14.44140625 75.36328125 C14.62574219 76.23339844 14.81007812 77.10351562 15 78 C16.65892528 79.01279055 18.32544956 80.01325859 20 81 C20 82.65 20 84.3 20 86 C14.72 86 9.44 86 4 86 C2.97708891 81.90835562 3.21631776 80.9184112 4 77 C3.96086392 75.63493369 3.90575176 74.27028585 3.83984375 72.90625 C3.81299775 67.67864943 5.25260629 63.51714864 7.125 58.6875 C7.77457487 56.92585428 8.42030563 55.16278711 9.0625 53.3984375 C9.38863281 52.50479492 9.71476563 51.61115234 10.05078125 50.69042969 C12.40362369 44.02162215 14.31469122 37.20698935 16.29150391 30.41943359 C16.99958772 28.0014079 17.72220241 25.58817601 18.44921875 23.17578125 C18.90373176 21.65887991 19.35816271 20.14195398 19.8125 18.625 C20.01955566 17.94155518 20.22661133 17.25811035 20.43994141 16.55395508 C21.57698862 12.72372486 22.43067577 8.95466077 23 5 C21.205625 5.12375 21.205625 5.12375 19.375 5.25 C12.63009372 5.2931674 6.36260996 3.02734656 0 1 C0 0.67 0 0.34 0 0 Z " fill="#5E5C7E" transform="translate(226,272)"/>
<path d="M0 0 C4.55438131 6.83157196 7.12995368 13.30148663 8 21.5 C8.77834596 28.5765215 10.7191447 33.74829148 14 40 C14.57398782 41.21380456 15.14270953 42.43010891 15.70703125 43.6484375 C16.30396546 44.91179975 16.90161501 46.17482426 17.5 47.4375 C18.31984375 49.16806641 18.31984375 49.16806641 19.15625 50.93359375 C21.70542497 55.17321737 24.31104521 57.43701507 29 59 C29.495 61.475 29.495 61.475 30 64 C24.06 64 18.12 64 12 64 C11.566875 62.63875 11.13375 61.2775 10.6875 59.875 C9.76087623 57.0689035 8.80836536 54.6320615 7.4375 52 C6 49 6 49 5.3125 45.125 C3.9300302 38.30405395 0.3173908 32.27754354 -2.87695312 26.16113281 C-4.74652353 22.56342908 -6.55996936 18.93793324 -8.375 15.3125 C-8.87507568 14.32431274 -8.87507568 14.32431274 -9.38525391 13.31616211 C-11.08806778 9.93021249 -12.65784502 6.54518714 -14 3 C-13.34 3 -12.68 3 -12 3 C-11.67 4.32 -11.34 5.64 -11 7 C-10.34 7 -9.68 7 -9 7 C-8.773125 7.61875 -8.54625 8.2375 -8.3125 8.875 C-6.62070165 11.61410209 -5.00755839 12.05024472 -2 13 C0.20914 9.68629 0.22481553 8.6553979 0.125 4.8125 C0.10695313 3.91144531 0.08890625 3.01039063 0.0703125 2.08203125 C0.04710937 1.39496094 0.02390625 0.70789063 0 0 Z " fill="#635E79" transform="translate(298,293)"/>
<path d="M0 0 C0.33 0 0.66 0 1 0 C1.03738281 0.7734375 1.07476562 1.546875 1.11328125 2.34375 C1.5222247 8.82269726 2.40824193 14.07777022 5 20 C5.44082568 21.26968355 5.87824026 22.54055578 6.3125 23.8125 C8.71069595 30.24170615 12.20157097 36.30235646 16 42 C17.010625 42.45375 18.02125 42.9075 19.0625 43.375 C20.031875 43.91125 21.00125 44.4475 22 45 C22.495 47.475 22.495 47.475 23 50 C18.05 50 13.1 50 8 50 C7.34 48.35 6.68 46.7 6 45 C2.99260853 37.772008 -0.504769 30.82235391 -4.05859375 23.85058594 C-5.38629026 21.24064311 -6.6934278 18.6205681 -8 16 C-8.391875 15.21625 -8.78375 14.4325 -9.1875 13.625 C-9.455625 13.08875 -9.72375 12.5525 -10 12 C-8.68 12.33 -7.36 12.66 -6 13 C-6 14.32 -6 15.64 -6 17 C-3.86356516 17.23541073 -3.86356516 17.23541073 -2.41796875 15.421875 C-0.58612183 12.29310065 -0.49274229 9.85484584 -0.3125 6.25 C-0.24675781 5.07953125 -0.18101562 3.9090625 -0.11328125 2.703125 C-0.07589844 1.81109375 -0.03851563 0.9190625 0 0 Z " fill="#625D78" transform="translate(201,308)"/>
<path d="M0 0 C0.33 0 0.66 0 1 0 C1 3.3 1 6.6 1 10 C5.23578792 7.89609059 5.23578792 7.89609059 7 4 C7.66 4.33 8.32 4.66 9 5 C8.70867187 5.58523438 8.41734375 6.17046875 8.1171875 6.7734375 C5.23774993 12.80395768 2.87940476 18.9240718 0.75 25.25 C0.49202637 26.00587402 0.23405273 26.76174805 -0.03173828 27.54052734 C-1.51379935 32.03404185 -2.47733193 36.29598737 -3 41 C-4.98 41.495 -4.98 41.495 -7 42 C-12.88183807 35.92560175 -12.88183807 35.92560175 -13.375 32.0625 C-13.189375 31.0415625 -13.189375 31.0415625 -13 30 C-11.68 29.67 -10.36 29.34 -9 29 C-8.938125 28.236875 -8.87625 27.47375 -8.8125 26.6875 C-8.07368402 23.33441209 -7.1018309 20.93953499 -5.625 17.875 C-2.87717932 12.08466482 -1.34135839 6.24876714 0 0 Z " fill="#5A5A82" transform="translate(150,316)"/>
<path d="M0 0 C0.33 0 0.66 0 1 0 C1.27734375 2.20703125 1.27734375 2.20703125 1 5 C-0.93359375 7.38671875 -0.93359375 7.38671875 -3.4375 9.6875 C-6.64840802 12.52056245 -6.64840802 12.52056245 -9 16 C-9.99 16 -10.98 16 -12 16 C-11.505 17.485 -11.505 17.485 -11 19 C-10.34 19.33 -9.68 19.66 -9 20 C-9 20.66 -9 21.32 -9 22 C-8.46632813 21.67386719 -7.93265625 21.34773438 -7.3828125 21.01171875 C-4.40893223 19.74903844 -2.09648308 19.76896644 1.125 19.8125 C2.17945313 19.81894531 3.23390625 19.82539063 4.3203125 19.83203125 C7 20 7 20 9 21 C13.78964513 21.30269133 18.51456455 21.14290845 23.25 20.375 C27.16625526 19.98337447 29.41498518 20.4763687 33 22 C33 22.99 33 23.98 33 25 C32.16879639 24.76120117 32.16879639 24.76120117 31.32080078 24.51757812 C28.79433821 23.95413392 26.45364829 23.80698347 23.8671875 23.71875 C22.89652344 23.68136719 21.92585938 23.64398438 20.92578125 23.60546875 C18.88412389 23.53488649 16.84245712 23.46457604 14.80078125 23.39453125 C13.83269531 23.35714844 12.86460937 23.31976563 11.8671875 23.28125 C10.98144043 23.25095703 10.09569336 23.22066406 9.18310547 23.18945312 C7 23 7 23 5 22 C-1.35179075 21.5275353 -1.35179075 21.5275353 -7 24 C-8.34817985 26.61961271 -8.34817985 26.61961271 -9.25 29.625 C-9.58515625 30.62789062 -9.9203125 31.63078125 -10.265625 32.6640625 C-10.50796875 33.43492187 -10.7503125 34.20578125 -11 35 C-11.33 35 -11.66 35 -12 35 C-12.09087891 34.09507812 -12.09087891 34.09507812 -12.18359375 33.171875 C-12.26738281 32.37265625 -12.35117187 31.5734375 -12.4375 30.75 C-12.51871094 29.96109375 -12.59992188 29.1721875 -12.68359375 28.359375 C-12.97634993 26.17635361 -13.42064419 24.1226818 -14 22 C-15.65 22 -17.3 22 -19 22 C-19.5259375 23.3921875 -19.5259375 23.3921875 -20.0625 24.8125 C-22.52818535 28.86895009 -24.64328236 29.30161855 -29 31 C-29.99 31.825 -30.98 32.65 -32 33.5 C-35.30907146 36.25755955 -38.04219967 37.40165756 -42 39 C-42.66 39.66 -43.32 40.32 -44 41 C-46.125 40.625 -46.125 40.625 -48 40 C-45.48136712 37.85175431 -43.169962 36.08309254 -40.1875 34.625 C-37.58827757 33.29990621 -35.60223726 32.0275398 -33.3125 30.2734375 C-30.52555787 28.15440322 -27.72565282 26.0596757 -24.89453125 24 C-24.22099609 23.505 -23.54746094 23.01 -22.85351562 22.5 C-21.48521813 21.49439954 -20.11275429 20.49444524 -18.73632812 19.5 C-14.4783068 16.35258867 -11.25610578 13.17389503 -8 9 C-6.33333333 7.33333333 -4.66666667 5.66666667 -3 4 C-1.99426222 2.67098936 -0.99204592 1.33926199 0 0 Z " fill="#EAAC5D" transform="translate(333,159)"/>
<path d="M0 0 C0.33 0.66 0.66 1.32 1 2 C0.2578125 3.69921875 0.2578125 3.69921875 -0.875 5.6875 C-2.9209387 9.54656369 -3.6388892 12.66667039 -4 17 C-4.66 17 -5.32 17 -6 17 C-6 19.97 -6 22.94 -6 26 C-6.66 26 -7.32 26 -8 26 C-7.67 26.66 -7.34 27.32 -7 28 C-6.01 28 -5.02 28 -4 28 C-4 24.7 -4 21.4 -4 18 C-2.68 17.67 -1.36 17.34 0 17 C-2.89661602 29.57394683 -5.87401079 41.36417899 -15 51 C-18.48972654 52.76072566 -21.10347447 53.2226586 -25 53 C-25 52.34 -25 51.68 -25 51 C-23.25 49.7109375 -23.25 49.7109375 -21 48.375 C-20.2575 47.92898438 -19.515 47.48296875 -18.75 47.0234375 C-18.1725 46.68570313 -17.595 46.34796875 -17 46 C-17.99 45.67 -18.98 45.34 -20 45 C-19.34 43.68 -18.68 42.36 -18 41 C-17.34 41 -16.68 41 -16 41 C-12.40993954 34.07292298 -10.15580346 26.72361932 -8.1875 19.19921875 C-6.30831041 12.02306349 -4.5642969 5.99879021 0 0 Z " fill="#5F5A7A" transform="translate(175,233)"/>
<path d="M0 0 C0.33 0 0.66 0 1 0 C1.63083543 14.63187726 -0.13263601 27.22478199 -8 40 C-8.98124315 41.01841145 -9.97963984 42.0207834 -11 43 C-12.03357147 44.64605826 -13.04060332 46.30963442 -14 48 C-14 44.61976483 -13.12544378 42.16531063 -12 39 C-11.01 39 -10.02 39 -9 39 C-9.33 37.35 -9.66 35.7 -10 34 C-11.37562854 35.28965176 -12.70766393 36.62689293 -14 38 C-14 38.66 -14 39.32 -14 40 C-17.63 39.67 -21.26 39.34 -25 39 C-25 38.67 -25 38.34 -25 38 C-24.03900391 37.84917969 -24.03900391 37.84917969 -23.05859375 37.6953125 C-17.7665946 36.5438492 -14.48582887 35.14290703 -11.1875 30.75 C-7.18169303 24.30300714 -5.10955385 17.22502874 -3 10 C-2.67902344 8.94941406 -2.35804688 7.89882812 -2.02734375 6.81640625 C-1.3357018 4.54846405 -0.65914949 2.27754906 0 0 Z " fill="#ECAD5D" transform="translate(175,248)"/>
<path d="M0 0 C0.47176709 7.42596344 -0.70061379 14.18278362 -2.34375 21.38671875 C-3.5654836 27.94009871 -3.5654836 27.94009871 -1.90625 34.21484375 C-1.4421875 34.78332031 -0.978125 35.35179687 -0.5 35.9375 C0.325 36.948125 1.15 37.95875 2 39 C1.67 39.66 1.34 40.32 1 41 C-4.91795807 35.23378445 -4.91795807 35.23378445 -5.203125 30.9453125 C-5.30691602 22.48634459 -4.55070103 15.15313366 -2 7 C-3.94765097 7.30939295 -3.94765097 7.30939295 -6 8 C-7.77148372 10.47933197 -7.77148372 10.47933197 -9 13 C-10.32 12.67 -11.64 12.34 -13 12 C-13 12.66 -13 13.32 -13 14 C-13.66 14 -14.32 14 -15 14 C-15.33 14.99 -15.66 15.98 -16 17 C-16.99 17.66 -17.98 18.32 -19 19 C-20.13570789 20.65193584 -20.13570789 20.65193584 -21.0625 22.5 C-22.2615342 24.77286805 -23.15055782 26.15055782 -25 28 C-25.99 28 -26.98 28 -28 28 C-26.59090858 23.76510902 -24.55839653 21.03613938 -21.5625 17.75 C-20.78003906 16.87859375 -19.99757812 16.0071875 -19.19140625 15.109375 C-17 13 -17 13 -14 12 C-13.67 11.01 -13.34 10.02 -13 9 C-11.02953627 7.34171729 -9.08145745 5.81604127 -7 4.3125 C-6.44054687 3.89677734 -5.88109375 3.48105469 -5.3046875 3.05273438 C-1.1541718 0 -1.1541718 0 0 0 Z " fill="#EDAE5E" transform="translate(192,285)"/>
<path d="M0 0 C0 0.66 0 1.32 0 2 C2.31 1.34 4.62 0.68 7 0 C7 0.66 7 1.32 7 2 C8.765625 2.22070312 10.53125 2.44140625 12.296875 2.66210938 C14.4375 2.9296875 16.578125 3.19726562 18.71875 3.46484375 C19.79165283 3.59632813 19.79165283 3.59632813 20.88623047 3.73046875 C22.85715179 3.98178512 24.82342803 4.26881465 26.7890625 4.55859375 C32.1363634 5.22536084 37.49447659 5.14538077 42.875 5.125 C44.44121094 5.13080078 44.44121094 5.13080078 46.0390625 5.13671875 C47.53179687 5.13478516 47.53179687 5.13478516 49.0546875 5.1328125 C49.95687012 5.13168457 50.85905273 5.13055664 51.78857422 5.12939453 C54.04181795 5.14334303 54.04181795 5.14334303 56 4 C59.65581171 3.73492604 63.30546633 3.55514201 66.96679688 3.39453125 C70.79767901 3.56827928 70.79767901 3.56827928 74 2 C79.96351721 0.92177479 85.96130397 0.90414768 92 1 C67.25120707 14.24046565 23.31564695 9.10799781 -3.06274414 3.59423828 C-5 3 -5 3 -8 1 C-2.25 0 -2.25 0 0 0 Z " fill="#EEBC74" transform="translate(208,443)"/>
<path d="M0 0 C0.33 0 0.66 0 1 0 C1 3.3 1 6.6 1 10 C5.23578792 7.89609059 5.23578792 7.89609059 7 4 C7.66 4.33 8.32 4.66 9 5 C8.70867187 5.58523438 8.41734375 6.17046875 8.1171875 6.7734375 C3.91242528 15.57963762 0.96931322 24.72472262 -2 34 C-2.33 34 -2.66 34 -3 34 C-3 31.36 -3 28.72 -3 26 C-2.34 26 -1.68 26 -1 26 C-0.67 23.36 -0.34 20.72 0 18 C-1.32 18 -2.64 18 -4 18 C-4.1546875 19.0209375 -4.1546875 19.0209375 -4.3125 20.0625 C-5.14819673 23.63320419 -6.36038313 26.72076626 -8 30 C-8.99 30.33 -9.98 30.66 -11 31 C-12.20882096 33.00016466 -12.20882096 33.00016466 -13 35 C-13 33.35 -13 31.7 -13 30 C-11.68 29.67 -10.36 29.34 -9 29 C-8.938125 28.236875 -8.87625 27.47375 -8.8125 26.6875 C-8.07368402 23.33441209 -7.1018309 20.93953499 -5.625 17.875 C-2.87717932 12.08466482 -1.34135839 6.24876714 0 0 Z " fill="#645D74" transform="translate(150,316)"/>
<path d="M0 0 C1.23895691 3.71687073 0.41807288 4.47819264 -1 8 C-1.20343224 10.66039759 -1.20343224 10.66039759 -1.0625 13.375 C-0.97401675 17.73427489 -1.23781816 21.71272712 -2 26 C-3.65 25.34 -5.3 24.68 -7 24 C-7 24.99 -7 25.98 -7 27 C-11.95 27 -16.9 27 -22 27 C-22 26.67 -22 26.34 -22 26 C-17.38 26 -12.76 26 -8 26 C-9.44722424 20.89127204 -9.44722424 20.89127204 -13.125 19.1875 C-14.07375 18.795625 -15.0225 18.40375 -16 18 C-16 17.34 -16 16.68 -16 16 C-14.68 16 -13.36 16 -12 16 C-12 16.66 -12 17.32 -12 18 C-11.01 18 -10.02 18 -9 18 C-8.68546875 17.3709375 -8.3709375 16.741875 -8.046875 16.09375 C-5.36458333 10.72916667 -2.68229167 5.36458333 0 0 Z " fill="#F7AF56" transform="translate(232,332)"/>
<path d="M0 0 C0.33 0 0.66 0 1 0 C1.02895225 3.29164829 1.0467823 6.58326399 1.0625 9.875 C1.07087891 10.81214844 1.07925781 11.74929687 1.08789062 12.71484375 C1.09111328 13.61074219 1.09433594 14.50664062 1.09765625 15.4296875 C1.10289307 16.25710449 1.10812988 17.08452148 1.11352539 17.93701172 C1 20 1 20 0 22 C-0.09848801 24.3966035 -0.13987943 26.763464 -0.1328125 29.16015625 C-0.13424759 30.21776405 -0.13424759 30.21776405 -0.13571167 31.29673767 C-0.13639229 32.78710011 -0.13454621 34.27746552 -0.13037109 35.76782227 C-0.12501318 38.05687058 -0.13032409 40.34572337 -0.13671875 42.63476562 C-0.1360581 44.0807296 -0.13477722 45.52669346 -0.1328125 46.97265625 C-0.13483673 47.66118179 -0.13686096 48.34970734 -0.13894653 49.05909729 C-0.39990572 52.30956697 -0.39990572 52.30956697 1 55 C1.22662859 56.39012525 1.39433541 57.78998618 1.53515625 59.19140625 C1.62216797 60.05443359 1.70917969 60.91746094 1.79882812 61.80664062 C1.88583984 62.71607422 1.97285156 63.62550781 2.0625 64.5625 C2.15337891 65.44486328 2.24425781 66.32722656 2.33789062 67.23632812 C2.85724099 72.51964425 3.09290789 77.69186258 3 83 C2.67 83 2.34 83 2 83 C-3.07987546 55.55313988 -5.18961562 27.61077049 0 0 Z " fill="#F1C57E" transform="translate(52,214)"/>
<path d="M0 0 C1.99897128 0.33944795 3.99875639 0.67421616 6 1 C7.25193163 4.75579489 6.13886593 6.18202058 4.72070312 9.71289062 C3.46758114 13.68960023 3.64620764 17.61776678 3.75 21.75 C3.75515625 22.58660156 3.7603125 23.42320312 3.765625 24.28515625 C3.81351007 28.03814842 3.97956122 31.37018269 5 35 C4.38125 35.268125 3.7625 35.53625 3.125 35.8125 C0.7004767 36.95556848 0.7004767 36.95556848 -1 40 C-7.11111111 43 -7.11111111 43 -11 43 C-7.55168298 38.94315645 -2.27282102 35.84365136 3 35 C2.34 34.01 1.68 33.02 1 32 C0.77532947 29.26602227 0.66831043 26.6703897 0.6875 23.9375 C0.68951416 23.17687256 0.69152832 22.41624512 0.69360352 21.63256836 C0.81233093 14.94473149 1.99276019 9.01447962 5 3 C3.02 3.66 1.04 4.32 -1 5 C-1 4.34 -1 3.68 -1 3 C-3.31 3 -5.62 3 -8 3 C-8.33 2.34 -8.66 1.68 -9 1 C-5.58651542 -1.14923103 -3.84227079 -1.00630902 0 0 Z " fill="#736267" transform="translate(220,155)"/>
<path d="M0 0 C0.33 0.66 0.66 1.32 1 2 C0.2578125 3.69921875 0.2578125 3.69921875 -0.875 5.6875 C-2.9209387 9.54656369 -3.6388892 12.66667039 -4 17 C-4.66 17 -5.32 17 -6 17 C-6 19.97 -6 22.94 -6 26 C-6.66 26 -7.32 26 -8 26 C-7.67 26.66 -7.34 27.32 -7 28 C-6.01 28 -5.02 28 -4 28 C-4 24.7 -4 21.4 -4 18 C-2.68 17.67 -1.36 17.34 0 17 C-3.07517084 29.66970387 -3.07517084 29.66970387 -5 35 C-5.99 33.68 -6.98 32.36 -8 31 C-9.32 33.31 -10.64 35.62 -12 38 C-12.66 37.67 -13.32 37.34 -14 37 C-13.65388672 36.12214844 -13.65388672 36.12214844 -13.30078125 35.2265625 C-11.29227686 29.93935331 -9.60969549 24.65845732 -8.18310547 19.19042969 C-6.31078483 12.01639229 -4.56143732 5.99503191 0 0 Z " fill="#796564" transform="translate(175,233)"/>
<path d="M0 0 C3.96873434 1.32291145 4.29905037 2.91149738 6.1875 6.5625 C6.71730469 7.57441406 7.24710937 8.58632813 7.79296875 9.62890625 C8.19128906 10.41136719 8.58960938 11.19382812 9 12 C7.35 12.33 5.7 12.66 4 13 C3.34 11.68 2.68 10.36 2 9 C0.68 9 -0.64 9 -2 9 C-2.28875 9.598125 -2.5775 10.19625 -2.875 10.8125 C-4 13 -4 13 -6 16 C-6.66 16 -7.32 16 -8 16 C-8 16.99 -8 17.98 -8 19 C-8.66 19 -9.32 19 -10 19 C-8.14287454 11.94292325 -4.00656677 6.00985015 0 0 Z " fill="#FBB150" transform="translate(269,277)"/>
<path d="M0 0 C0.33 0 0.66 0 1 0 C2.04330309 5.16581383 2.17708866 10.14867199 2.203125 15.39453125 C2.20882507 16.30015305 2.21452515 17.20577484 2.22039795 18.13883972 C2.2298214 20.05600834 2.23637135 21.97319297 2.24023438 23.89038086 C2.24984165 26.76511682 2.28084887 29.6391064 2.3125 32.51367188 C2.37652494 44.0072646 1.47413623 54.77029497 -1 66 C-1.33 66 -1.66 66 -2 66 C-1.8612922 62.06221489 -1.71281508 58.12485777 -1.5625 54.1875 C-1.52318359 53.06794922 -1.48386719 51.94839844 -1.44335938 50.79492188 C-1.40146484 49.72177734 -1.35957031 48.64863281 -1.31640625 47.54296875 C-1.27974854 46.55321045 -1.24309082 45.56345215 -1.20532227 44.54370117 C-1 42 -1 42 0 39 C0.085409 36.05035887 0.11582927 33.12496981 0.09765625 30.17578125 C0.0962413 29.31438034 0.09482635 28.45297943 0.09336853 27.56547546 C0.0877714 24.81444831 0.07521946 22.06350256 0.0625 19.3125 C0.05748463 17.4472668 0.05292179 15.58203233 0.04882812 13.71679688 C0.03780292 9.14449989 0.02054027 4.57226375 0 0 Z " fill="#EEC07C" transform="translate(448,223)"/>
<path d="M0 0 C6.31303392 -0.05121737 12.62601316 -0.08594785 18.93920898 -0.10986328 C21.08148196 -0.11984606 23.22374157 -0.13343702 25.3659668 -0.15087891 C48.19603138 -0.3319431 48.19603138 -0.3319431 59 2 C59 2.33 59 2.66 59 3 C39.34683512 3.25268355 19.5823799 2.73002228 0 1 C0 0.67 0 0.34 0 0 Z " fill="#F2C07A" transform="translate(227,50)"/>
<path d="M0 0 C2.475 0.99 2.475 0.99 5 2 C5 2.66 5 3.32 5 4 C5.66 4 6.32 4 7 4 C7 4.99 7 5.98 7 7 C6.34 7 5.68 7 5 7 C5.66 7.66 6.32 8.32 7 9 C7.33 8.34 7.66 7.68 8 7 C8.66 7 9.32 7 10 7 C10.33 7.66 10.66 8.32 11 9 C13.02463255 9.65213292 13.02463255 9.65213292 15 10 C15 10.99 15 11.98 15 13 C10.38 13 5.76 13 1 13 C0.855625 11.906875 0.71125 10.81375 0.5625 9.6875 C0.11711896 6.06877013 0.11711896 6.06877013 -1 3 C-0.67 2.01 -0.34 1.02 0 0 Z " fill="#585A85" transform="translate(310,343)"/>
<path d="M0 0 C10.61115076 2.49674136 19.08318167 7.98692943 28 14 C27.01 14.495 27.01 14.495 26 15 C23.56442428 14.09176973 21.23804483 13.13171929 18.875 12.0625 C18.21628906 11.77181641 17.55757813 11.48113281 16.87890625 11.18164062 C15.24950495 10.46139802 13.62433868 9.73158857 12 9 C12 9.66 12 10.32 12 11 C10.68 11 9.36 11 8 11 C7.67 9.02 7.34 7.04 7 5 C4.69 4.34 2.38 3.68 0 3 C0 2.01 0 1.02 0 0 Z " fill="#F6BE6C" transform="translate(331,67)"/>
<path d="M0 0 C0.33 0 0.66 0 1 0 C1.66 3.63 2.32 7.26 3 11 C4.32 11 5.64 11 7 11 C7 11.99 7 12.98 7 14 C2.71 14 -1.58 14 -6 14 C-6 12.68 -6 11.36 -6 10 C-5.34 10 -4.68 10 -4 10 C-4.33 8.02 -4.66 6.04 -5 4 C-4.360625 3.71125 -3.72125 3.4225 -3.0625 3.125 C-0.84793921 2.17176549 -0.84793921 2.17176549 0 0 Z " fill="#585A83" transform="translate(237,342)"/>
<path d="M0 0 C0.66 0.33 1.32 0.66 2 1 C0 4 0 4 -3 5 C-3.598125 5.639375 -4.19625 6.27875 -4.8125 6.9375 C-7 9 -7 9 -10 9.875 C-13.23288152 10.74694118 -13.23288152 10.74694118 -14.8125 13.8125 C-17.72856001 18.06161602 -21.32751862 19.96142704 -26 22 C-26.66 22 -27.32 22 -28 22 C-28.33 23.32 -28.66 24.64 -29 26 C-30.32 25.67 -31.64 25.34 -33 25 C-31.71034824 23.62437146 -30.37310707 22.29233607 -29 21 C-28.34 21 -27.68 21 -27 21 C-27 20.34 -27 19.68 -27 19 C-24.9453125 17.30078125 -24.9453125 17.30078125 -22.125 15.3125 C-21.12339844 14.60222656 -20.12179688 13.89195313 -19.08984375 13.16015625 C-18.07019531 12.44730469 -17.05054688 11.73445313 -16 11 C-15.09378906 10.35933594 -14.18757813 9.71867187 -13.25390625 9.05859375 C-8.877546 5.97449208 -4.47271066 2.9425728 0 0 Z " fill="#F2BE71" transform="translate(148,76)"/>
<path d="M0 0 C0.66 0.33 1.32 0.66 2 1 C0.625 3.5 0.625 3.5 -1 6 C-1.66 6 -2.32 6 -3 6 C-2.938125 7.051875 -2.87625 8.10375 -2.8125 9.1875 C-3 13 -3 13 -4.4375 15.375 C-6.37546553 18.63078208 -6.52588699 21.28339896 -6.7890625 25.01171875 C-7 27 -7 27 -8 29 C-8.99 29 -9.98 29 -11 29 C-10.938125 30.093125 -10.87625 31.18625 -10.8125 32.3125 C-11 36 -11 36 -12.5 37.9375 C-12.995 38.288125 -13.49 38.63875 -14 39 C-14.66 38.67 -15.32 38.34 -16 38 C-15.56429688 36.98164063 -15.12859375 35.96328125 -14.6796875 34.9140625 C-11.05112564 26.32236602 -7.76263801 17.72961955 -5.04248047 8.80322266 C-3.87082906 5.08057041 -2.89917067 2.60805311 0 0 Z " fill="#DDA666" transform="translate(348,203)"/>
<path d="M0 0 C3.875 3.75 3.875 3.75 5 6 C6.485 6.6496875 6.485 6.6496875 8 7.3125 C8.99 7.869375 9.98 8.42625 11 9 C11.33 10.65 11.66 12.3 12 14 C7.05 14 2.1 14 -3 14 C-3.33 12.02 -3.66 10.04 -4 8 C-3.34 8 -2.68 8 -2 8 C-1.67 8.99 -1.34 9.98 -1 11 C1.64 11 4.28 11 7 11 C7 10.01 7 9.02 7 8 C6.01 8.33 5.02 8.66 4 9 C4 8.34 4 7.68 4 7 C3.01 6.67 2.02 6.34 1 6 C0.67 4.02 0.34 2.04 0 0 Z " fill="#78656B" transform="translate(212,344)"/>
<path d="M0 0 C1 3 1 3 -0.25 6 C-1.69459787 8.47645349 -2.76455255 10.25051939 -5 12 C-5.66 12 -6.32 12 -7 12 C-7.1546875 13.6396875 -7.1546875 13.6396875 -7.3125 15.3125 C-8 19 -8 19 -9.4375 20.9375 C-11 22 -11 22 -13 22 C-13.33 22.99 -13.66 23.98 -14 25 C-14.66 24.67 -15.32 24.34 -16 24 C-14.51358525 19.73152556 -12.27948754 16.22555677 -9.6875 12.5625 C-9.30916016 12.01529297 -8.93082031 11.46808594 -8.54101562 10.90429688 C-5.87880302 7.09791845 -3.01262058 3.53516362 0 0 Z " fill="#F3C57C" transform="translate(94,123)"/>
<path d="M0 0 C0.96661363 3.12180401 0.98988909 5.52083795 0.5625 8.75 C0.46066406 9.54921875 0.35882813 10.3484375 0.25390625 11.171875 C0.12822266 12.07679688 0.12822266 12.07679688 0 13 C-0.66 13 -1.32 13 -2 13 C-2 15.31 -2 17.62 -2 20 C-2.33 20 -2.66 20 -3 20 C-2.64166705 26.80832599 -0.96627926 32.59068104 1.36010742 38.94555664 C1.95774261 40.61296098 2.48469033 42.3053434 3 44 C2.67 44.66 2.34 45.32 2 46 C-1.06127546 41.77252436 -2.11182966 37.31371727 -3.3515625 32.328125 C-3.77842578 30.05775603 -3.77842578 30.05775603 -5 29 C-6.32282999 18.7197212 -3.18669129 9.60559803 0 0 Z " fill="#D49F65" transform="translate(207,291)"/>
<path d="M0 0 C0.89203125 0.10183594 1.7840625 0.20367187 2.703125 0.30859375 C3.37859375 0.39238281 4.0540625 0.47617188 4.75 0.5625 C4.75 1.2225 4.75 1.8825 4.75 2.5625 C4.19650879 2.58231934 3.64301758 2.60213867 3.07275391 2.62255859 C-10.22949069 3.0150512 -10.22949069 3.0150512 -23.328125 5.15234375 C-25.98376357 5.71909588 -28.5482196 5.70469897 -31.25 5.5625 C-30.92 4.5725 -30.59 3.5825 -30.25 2.5625 C-29.63479492 2.50715088 -29.01958984 2.45180176 -28.38574219 2.39477539 C-25.59019004 2.14142518 -22.79510238 1.88326306 -20 1.625 C-19.03191406 1.53798828 -18.06382812 1.45097656 -17.06640625 1.36132812 C-16.13183594 1.27431641 -15.19726562 1.18730469 -14.234375 1.09765625 C-12.94611816 0.97982788 -12.94611816 0.97982788 -11.63183594 0.85961914 C-9.27123444 0.61435985 -9.27123444 0.61435985 -7.09960938 0.02148438 C-4.620458 -0.59372214 -2.52693152 -0.29924189 0 0 Z " fill="#E7AA64" transform="translate(329.25,151.4375)"/>
<path d="M0 0 C0.66 0 1.32 0 2 0 C1.08766188 4.26710571 -0.99345009 7.62826236 -3.25 11.3125 C-3.63285156 11.95123047 -4.01570313 12.58996094 -4.41015625 13.24804688 C-7.07865378 17.65240651 -9.90853652 21.8798254 -13 26 C-13.33 26 -13.66 26 -14 26 C-14 24.35 -14 22.7 -14 21 C-13.01 20.67 -12.02 20.34 -11 20 C-11 19.01 -11 18.02 -11 17 C-10.34 17 -9.68 17 -9 17 C-8.67 15.35 -8.34 13.7 -8 12 C-7.01 12 -6.02 12 -5 12 C-5 9.36 -5 6.72 -5 4 C-3.68 4 -2.36 4 -1 4 C-0.67 2.68 -0.34 1.36 0 0 Z " fill="#F2C98C" transform="translate(426,342)"/>
<path d="M0 0 C3.83325416 1.45399296 5.28279605 3.3080115 7 7 C7.1875 9.8125 7.1875 9.8125 7 12 C6.34 12 5.68 12 5 12 C5 12.66 5 13.32 5 14 C4.443125 14.01417969 3.88625 14.02835938 3.3125 14.04296875 C-2.266045 14.39162781 -5.75016018 15.65598055 -10.2734375 18.94140625 C-12 20 -12 20 -15 20 C-13.76300821 16.28902463 -12.83913266 16.04187966 -9.4375 14.3125 C-4.63899926 12.00645792 -1.26233444 11.51274681 4 12 C4 9.69 4 7.38 4 5 C2.68 4.67 1.36 4.34 0 4 C0 2.68 0 1.36 0 0 Z " fill="#705E6D" transform="translate(363,183)"/>
<path d="M0 0 C0 0.66 0 1.32 0 2 C2.31 1.34 4.62 0.68 7 0 C7 0.66 7 1.32 7 2 C8.09699219 2.12117188 9.19398438 2.24234375 10.32421875 2.3671875 C11.77868823 2.53609363 13.23311304 2.70538481 14.6875 2.875 C15.40873047 2.95363281 16.12996094 3.03226562 16.87304688 3.11328125 C20.88515932 3.5896051 24.29975512 4.26300142 28 6 C28 6.33 28 6.66 28 7 C20.89968626 7.26008475 14.18590315 6.26908678 7.1875 5.125 C6.05634766 4.95097656 4.92519531 4.77695312 3.75976562 4.59765625 C2.67759766 4.42363281 1.59542969 4.24960937 0.48046875 4.0703125 C-0.50026611 3.91320801 -1.48100098 3.75610352 -2.49145508 3.59423828 C-5 3 -5 3 -8 1 C-2.25 0 -2.25 0 0 0 Z " fill="#F0C785" transform="translate(208,443)"/>
<path d="M0 0 C1.9587043 0.14076315 3.91696093 0.2877676 5.875 0.4375 C7.51082031 0.55931641 7.51082031 0.55931641 9.1796875 0.68359375 C12 1 12 1 14 2 C15.70363822 2.22622081 17.41328701 2.40888473 19.125 2.5625 C20.03507812 2.64628906 20.94515625 2.73007812 21.8828125 2.81640625 C22.58148438 2.87699219 23.28015625 2.93757813 24 3 C24.56993514 11.26405949 22.48605403 18.1977858 20 26 C18.7448373 22.43533794 19.28536471 20.19380548 20.375 16.625 C21.5092167 12.75623343 22.45877556 9.00506088 23 5 C21.205625 5.12375 21.205625 5.12375 19.375 5.25 C12.63009372 5.2931674 6.36260996 3.02734656 0 1 C0 0.67 0 0.34 0 0 Z " fill="#826962" transform="translate(226,272)"/>
<path d="M0 0 C0 0.66 0 1.32 0 2 C-0.886875 2.2475 -1.77375 2.495 -2.6875 2.75 C-6.42653185 3.82159882 -10.15209561 4.93620879 -13.875 6.0625 C-15.00679687 6.40410156 -16.13859375 6.74570312 -17.3046875 7.09765625 C-19.88853568 7.73985332 -19.88853568 7.73985332 -21 9 C-22.66617115 9.04063832 -24.33388095 9.042721 -26 9 C-26 9.66 -26 10.32 -26 11 C-30.455 11.495 -30.455 11.495 -35 12 C-31.98124451 9.49475333 -29.21957903 8.20642508 -25.5 6.9921875 C-24.448125 6.64542969 -23.39625 6.29867187 -22.3125 5.94140625 C-20.6728125 5.41353516 -20.6728125 5.41353516 -19 4.875 C-17.906875 4.51535156 -16.81375 4.15570313 -15.6875 3.78515625 C-4.11938202 0 -4.11938202 0 0 0 Z " fill="#F1C889" transform="translate(206,54)"/>
<path d="M0 0 C1.95825873 -0.02694851 3.91662226 -0.04637218 5.875 -0.0625 C6.96554687 -0.07410156 8.05609375 -0.08570313 9.1796875 -0.09765625 C12 0 12 0 14 1 C18.78964513 1.30269133 23.51456455 1.14290845 28.25 0.375 C32.16625526 -0.01662553 34.41498518 0.4763687 38 2 C38 2.99 38 3.98 38 5 C37.44586426 4.84080078 36.89172852 4.68160156 36.32080078 4.51757812 C33.79433821 3.95413392 31.45364829 3.80698347 28.8671875 3.71875 C27.89652344 3.68136719 26.92585938 3.64398438 25.92578125 3.60546875 C23.88412389 3.53488649 21.84245712 3.46457604 19.80078125 3.39453125 C18.83269531 3.35714844 17.86460937 3.31976563 16.8671875 3.28125 C15.98144043 3.25095703 15.09569336 3.22066406 14.18310547 3.18945312 C12 3 12 3 10 2 C4.39296787 1.78622279 4.39296787 1.78622279 -1 3 C-0.67 2.01 -0.34 1.02 0 0 Z " fill="#DCA567" transform="translate(328,179)"/>
<path d="M0 0 C0.66 0 1.32 0 2 0 C5.07708804 5.93438408 6.48736475 10.29873464 6 17 C6.54269531 16.71125 7.08539063 16.4225 7.64453125 16.125 C8.35996094 15.75375 9.07539063 15.3825 9.8125 15 C10.52019531 14.62875 11.22789062 14.2575 11.95703125 13.875 C14 13 14 13 17 13 C17 12.34 17 11.68 17 11 C18.65 11 20.3 11 22 11 C18.82505993 13.55375615 15.51896339 15.37447153 11.875 17.1875 C10.82054687 17.71730469 9.76609375 18.24710938 8.6796875 18.79296875 C6 20 6 20 4 20 C3.96261719 19.31035156 3.92523438 18.62070313 3.88671875 17.91015625 C3.43921852 11.51353535 2.34350199 5.96929752 0 0 Z " fill="#E2AB68" transform="translate(243,156)"/>
<path d="M0 0 C-1.51812607 3.03625214 -3.8006108 3.22566137 -6.9375 4.375 C-12.02400107 6.26283135 -17.06167026 8.2252088 -22.07421875 10.30078125 C-24 11 -24 11 -26 11 C-26 10.01 -26 9.02 -26 8 C-24.68 8 -23.36 8 -22 8 C-22.33 7.01 -22.66 6.02 -23 5 C-21.865625 5.103125 -20.73125 5.20625 -19.5625 5.3125 C-14.86967356 5.35402944 -12.03232336 3.51967035 -8.12109375 1.11328125 C-5.33428152 -0.34941025 -3.09036778 -0.396201 0 0 Z " fill="#F0C17B" transform="translate(335,431)"/>
<path d="M0 0 C-0.51949219 0.37511719 -1.03898437 0.75023437 -1.57421875 1.13671875 C-5.72122184 4.17989847 -9.40353272 7.3063309 -13 11 C-14.64864545 12.35555293 -16.31003995 13.69631653 -18 15 C-18.33 14.01 -18.66 13.02 -19 12 C-17.890625 10.17578125 -17.890625 10.17578125 -16.25 8.3125 C-15.45335937 7.37857422 -15.45335937 7.37857422 -14.640625 6.42578125 C-13 5 -13 5 -10 5 C-9.95875 4.38125 -9.9175 3.7625 -9.875 3.125 C-9 1 -9 1 -6.125 -0.3125 C-3 -1 -3 -1 0 0 Z " fill="#5D5B79" transform="translate(187,289)"/>
<path d="M0 0 C5.1338435 1.05208763 10.09388762 2.69991376 15.03955078 4.41796875 C15.03955078 4.74796875 15.03955078 5.07796875 15.03955078 5.41796875 C12.83050448 5.33021212 10.62226485 5.22202508 8.41455078 5.10546875 C7.18478516 5.04746094 5.95501953 4.98945312 4.68798828 4.9296875 C0.85969841 4.3927432 -1.55552518 3.1753489 -4.96044922 1.41796875 C-7.92210913 0.85589921 -7.92210913 0.85589921 -10.83544922 0.73046875 C-11.80224609 0.66472656 -12.76904297 0.59898438 -13.76513672 0.53125 C-14.48958984 0.49386719 -15.21404297 0.45648438 -15.96044922 0.41796875 C-11.06856669 -2.84328627 -5.55698906 -0.98087778 0 0 Z " fill="#F1BF7D" transform="translate(298.96044921875,54.58203125)"/>
<path d="M0 0 C3 1 3 1 4.125 2.5625 C5.36492259 6.01657007 5.63491457 9.34914566 6 13 C6.66 13 7.32 13 8 13 C8 12.34 8 11.68 8 11 C8.66 11 9.32 11 10 11 C10 14.3 10 17.6 10 21 C9.34 21.33 8.68 21.66 8 22 C6.84552129 19.46195542 5.70131573 16.92006371 4.5625 14.375 C4.23701172 13.66214844 3.91152344 12.94929688 3.57617188 12.21484375 C1.76228896 8.13828214 0.50194256 4.48213493 0 0 Z " fill="#F1C88B" transform="translate(58,309)"/>
<path d="M0 0 C0.66 0 1.32 0 2 0 C1.46233663 6.74461265 0.0789421 12.65804789 -2.0625 19.0625 C-2.34416016 19.92810547 -2.62582031 20.79371094 -2.91601562 21.68554688 C-3.60298435 23.79302719 -4.29770066 25.8975895 -5 28 C-5.33 28 -5.66 28 -6 28 C-5.88617347 26.04098546 -5.75858875 24.0827662 -5.625 22.125 C-5.55539062 21.03445313 -5.48578125 19.94390625 -5.4140625 18.8203125 C-5 16 -5 16 -3 14 C-2.56758381 11.82661404 -2.22452617 9.63481797 -1.9375 7.4375 C-1.09722222 1.09722222 -1.09722222 1.09722222 0 0 Z " fill="#EDC68B" transform="translate(444,292)"/>
<path d="M0 0 C0.33 0 0.66 0 1 0 C1.05455703 2.97941998 1.09393851 5.95781531 1.125 8.9375 C1.15013672 10.18370117 1.15013672 10.18370117 1.17578125 11.45507812 C1.233152 18.82721893 0.97113649 26.20034076 -4 32 C-4.33 32.886875 -4.66 33.77375 -5 34.6875 C-5.33 35.450625 -5.66 36.21375 -6 37 C-7.485 37.495 -7.485 37.495 -9 38 C-8.72285156 37.3090625 -8.44570312 36.618125 -8.16015625 35.90625 C-6.90992598 32.77436002 -5.66647362 29.64030274 -4.4375 26.5 C-3.78587891 24.84484375 -3.78587891 24.84484375 -3.12109375 23.15625 C-1.24034887 17.86133062 -0.76340134 12.77056398 -0.4375 7.1875 C-0.39431641 6.49462891 -0.35113281 5.80175781 -0.30664062 5.08789062 C-0.20138547 3.39211314 -0.10027137 1.69607948 0 0 Z " fill="#7D6869" transform="translate(176,250)"/>
<path d="M0 0 C1.23895691 3.71687073 0.41807288 4.47819264 -1 8 C-1.20343224 10.66039759 -1.20343224 10.66039759 -1.0625 13.375 C-0.97401675 17.73427489 -1.23781816 21.71272712 -2 26 C-2.66 25.67 -3.32 25.34 -4 25 C-5.64312459 19.01734124 -6.28414138 11.74339295 -3.625 6.0625 C-3.08875 5.381875 -2.5525 4.70125 -2 4 C-1.31903578 2.67391178 -0.64669414 1.34313399 0 0 Z " fill="#E3A863" transform="translate(232,332)"/>
<path d="M0 0 C0.33 0.66 0.66 1.32 1 2 C0.01 3.485 0.01 3.485 -1 5 C-0.64111965 7.96076291 -0.15341979 8.84658021 2 11 C-1.69172595 14.53790403 -5.09390595 14.59115883 -10 15 C-10 14.34 -10 13.68 -10 13 C-8.25 11.7109375 -8.25 11.7109375 -6 10.375 C-4.88625 9.70597656 -4.88625 9.70597656 -3.75 9.0234375 C-3.1725 8.68570312 -2.595 8.34796875 -2 8 C-2.99 7.67 -3.98 7.34 -5 7 C-4.34 5.68 -3.68 4.36 -3 3 C-2.34 3 -1.68 3 -1 3 C-0.67 2.01 -0.34 1.02 0 0 Z " fill="#786567" transform="translate(160,271)"/>
<path d="M0 0 C3.47691793 1.15897264 4.22015595 1.8640843 6 5 C6.51366129 8.52224887 6.45163454 10.27345748 4.5625 13.3125 C1.39879754 15.39591381 -0.95256234 15.53268635 -4.671875 15.78515625 C-7.95709541 16.08832256 -10.86359628 16.99902009 -14 18 C-11.25851004 14.98436105 -8.78655645 13.14789375 -4.640625 12.8046875 C-3.45726562 12.83949219 -3.45726562 12.83949219 -2.25 12.875 C-1.45078125 12.89304688 -0.6515625 12.91109375 0.171875 12.9296875 C0.77515625 12.95289063 1.3784375 12.97609375 2 13 C2 12.34 2 11.68 2 11 C2.66 11 3.32 11 4 11 C2.95902388 7.13351728 1.96301592 3.50538557 0 0 Z " fill="#DBA669" transform="translate(366,184)"/>
<path d="M0 0 C1.3921875 0.9590625 1.3921875 0.9590625 2.8125 1.9375 C5.84219943 4.08622093 5.84219943 4.08622093 9 5 C9.33 6.65 9.66 8.3 10 10 C4.06 10 -1.88 10 -8 10 C-8.66 7.69 -9.32 5.38 -10 3 C-9.01 2.67 -8.02 2.34 -7 2 C-7 4.31 -7 6.62 -7 9 C-2.38 9 2.24 9 7 9 C7 8.01 7 7.02 7 6 C6.21625 5.938125 5.4325 5.87625 4.625 5.8125 C3.325625 5.4103125 3.325625 5.4103125 2 5 C0.6875 2.4375 0.6875 2.4375 0 0 Z " fill="#7A655C" transform="translate(318,347)"/>
<path d="M0 0 C0.33 0 0.66 0 1 0 C1 2.64 1 5.28 1 8 C0.34 8 -0.32 8 -1 8 C-0.896875 8.78375 -0.79375 9.5675 -0.6875 10.375 C-1.0706977 14.82009328 -2.67748557 17.70097733 -4.765625 21.58984375 C-6.14793073 24.12383378 -6.14793073 24.12383378 -7.125 27.5625 C-7.558125 28.7690625 -7.558125 28.7690625 -8 30 C-8.99 30.33 -9.98 30.66 -11 31 C-12.20882096 33.00016466 -12.20882096 33.00016466 -13 35 C-13 33.35 -13 31.7 -13 30 C-11.68 29.67 -10.36 29.34 -9 29 C-8.938125 28.236875 -8.87625 27.47375 -8.8125 26.6875 C-8.07368402 23.33441209 -7.1018309 20.93953499 -5.625 17.875 C-2.87717932 12.08466482 -1.34135839 6.24876714 0 0 Z " fill="#7D6763" transform="translate(150,316)"/>
<path d="M0 0 C-6.26147658 3.80394506 -12.56917113 7.48945091 -19 11 C-19 10.01 -19 9.02 -19 8 C-17.35 7.67 -15.7 7.34 -14 7 C-14.66 5.68 -15.32 4.36 -16 3 C-3.003861 -1.5019305 -3.003861 -1.5019305 0 0 Z " fill="#685F71" transform="translate(296,193)"/>
<path d="M0 0 C0.33 0 0.66 0 1 0 C1.27734375 2.20703125 1.27734375 2.20703125 1 5 C-0.93359375 7.38671875 -0.93359375 7.38671875 -3.4375 9.6875 C-6.64840802 12.52056245 -6.64840802 12.52056245 -9 16 C-10.97888961 16.72693904 -12.97954558 17.39816251 -15 18 C-11.60673586 13.3007373 -8.16328712 9.05372694 -4 5 C-3.2575 4.071875 -2.515 3.14375 -1.75 2.1875 C-1.1725 1.465625 -0.595 0.74375 0 0 Z " fill="#E2AA60" transform="translate(333,159)"/>
<path d="M0 0 C-0.88751953 0.25523437 -0.88751953 0.25523437 -1.79296875 0.515625 C-6.6157329 1.9947109 -10.29855998 3.41422998 -14 7 C-15.39942123 9.79884246 -15.17967111 11.88570077 -15 15 C-14.649375 16.03125 -14.29875 17.0625 -13.9375 18.125 C-12.94738895 21.16134054 -13.10114468 22.07086309 -14 25 C-16.45954911 18.93896827 -18.43864372 12.55885601 -17 6 C-14.25581175 2.43063627 -11.68242506 1.273064 -7.375 0.1875 C-6.41335938 -0.06644531 -5.45171875 -0.32039063 -4.4609375 -0.58203125 C-2 -1 -2 -1 0 0 Z " fill="#E0AA69" transform="translate(309,261)"/>
<path d="M0 0 C4.33492576 2.16746288 5.45209506 9.62369732 7 14 C7.74042763 16.32652134 8.39478712 18.63416785 9 21 C8.34 21 7.68 21 7 21 C7 20.01 7 19.02 7 18 C5.68 18.33 4.36 18.66 3 19 C3 15 3 11 3 7 C2.34 7 1.68 7 1 7 C0.67 4.69 0.34 2.38 0 0 Z " fill="#F3BC71" transform="translate(431,165)"/>
<path d="M0 0 C3.05936637 3.75467691 5 7.08113061 5 12 C5.99 12 6.98 12 8 12 C9.25664978 14.90600261 10 16.79604584 10 20 C10.66 20.33 11.32 20.66 12 21 C11.67 21.99 11.34 22.98 11 24 C1.20235294 9.14823529 1.20235294 9.14823529 -1 3 C-0.67 2.01 -0.34 1.02 0 0 Z " fill="#F2C37C" transform="translate(70,335)"/>
<path d="M0 0 C0.99 0 1.98 0 3 0 C3 0.66 3 1.32 3 2 C4.32 2.33 5.64 2.66 7 3 C6.01 3.33 5.02 3.66 4 4 C5.32 5.65 6.64 7.3 8 9 C4.32965255 9 2.9000569 7.9247108 -0.1875 6 C-1.08855469 5.443125 -1.98960937 4.88625 -2.91796875 4.3125 C-3.60503906 3.879375 -4.29210937 3.44625 -5 3 C-5.33 4.32 -5.66 5.64 -6 7 C-6 5.35 -6 3.7 -6 2 C-4.35 2 -2.7 2 -1 2 C-0.67 1.34 -0.34 0.68 0 0 Z " fill="#6B6073" transform="translate(216,262)"/>
<path d="M0 0 C5.145995 4.69193661 9.77695498 10.33086494 12 17 C11.34 17.33 10.68 17.66 10 18 C9.67 17.34 9.34 16.68 9 16 C8.67 16.66 8.34 17.32 8 18 C7.34 18 6.68 18 6 18 C5.98582031 17.40832031 5.97164063 16.81664062 5.95703125 16.20703125 C5.59979025 10.28841683 4.52763984 8.06326653 0 4 C0 2.68 0 1.36 0 0 Z " fill="#F4C072" transform="translate(406,124)"/>
<path d="M0 0 C0.66 0 1.32 0 2 0 C0 5 0 5 -1.04296875 7.26171875 C-2.50891559 11.45612175 -2.40218413 15.62932022 -2.55859375 20.0390625 C-3.02833005 23.19003694 -3.50320813 24.12241251 -6 26 C-6.52372538 16.92209334 -4.60357719 7.89184662 0 0 Z " fill="#6D5F6D" transform="translate(326,182)"/>
<path d="M0 0 C0.33 0 0.66 0 1 0 C1.30898834 5.25280185 0.66508219 7.59236407 -2 12 C-2.63924847 14.6184601 -3.12216596 17.23319462 -3.5703125 19.890625 C-4 22 -4 22 -5 23 C-7.33297433 23.04092937 -9.66705225 23.04241723 -12 23 C-11.67 21.68 -11.34 20.36 -11 19 C-10.34 19.66 -9.68 20.32 -9 21 C-8.01 21 -7.02 21 -6 21 C-5.90203125 20.40574219 -5.8040625 19.81148438 -5.703125 19.19921875 C-4.49358084 12.49459034 -2.48174328 6.33687847 0 0 Z " fill="#E2AA68" transform="translate(152,336)"/>
<path d="M0 0 C1.08360173 3.2508052 0.91331507 4.06917502 0.0625 7.25 C-1.72217875 14.24317708 -1.72217875 14.24317708 0.12109375 20.98828125 C1.3410902 22.71286547 2.66411577 24.36354182 4 26 C3.67 26.66 3.34 27.32 3 28 C-2.96667654 22.18631517 -2.96667654 22.18631517 -3.09765625 17.5234375 C-3.09100795 16.14059133 -3.07908295 14.75776272 -3.0625 13.375 C-3.05798828 12.66859375 -3.05347656 11.9621875 -3.04882812 11.234375 C-3.03703875 9.48954725 -3.01910324 7.744763 -3 6 C-2.34 6 -1.68 6 -1 6 C-0.67 4.02 -0.34 2.04 0 0 Z " fill="#E0A867" transform="translate(190,298)"/>
<path d="M0 0 C0.99 0.33 1.98 0.66 3 1 C3 1.66 3 2.32 3 3 C2.360625 3.20625 1.72125 3.4125 1.0625 3.625 C0.381875 4.07875 -0.29875 4.5325 -1 5 C-1.3548954 6.99628664 -1.68578929 8.99690671 -2 11 C-3.9375 13.875 -3.9375 13.875 -6 16 C-6.66 16 -7.32 16 -8 16 C-8 16.99 -8 17.98 -8 19 C-8.66 19 -9.32 19 -10 19 C-8.14287454 11.94292325 -4.00656677 6.00985015 0 0 Z " fill="#E7AC5C" transform="translate(269,277)"/>
<path d="M0 0 C0.66 0 1.32 0 2 0 C2.33 1.32 2.66 2.64 3 4 C3.66 4 4.32 4 5 4 C5.28875 4.639375 5.5775 5.27875 5.875 5.9375 C6.82823451 8.15206079 6.82823451 8.15206079 9 9 C9 10.98 9 12.96 9 15 C9.66 15 10.32 15 11 15 C11 16.65 11 18.3 11 20 C11.66 20 12.32 20 13 20 C12.67 21.32 12.34 22.64 12 24 C8 16 4 8 0 0 Z " fill="#6F6068" transform="translate(284,296)"/>
<path d="M0 0 C0.66 0 1.32 0 2 0 C2.66 0 3.32 0 4 0 C3.01 3.96 2.02 7.92 1 12 C0.67 12 0.34 12 0 12 C0 9.36 0 6.72 0 4 C-2.64 3.67 -5.28 3.34 -8 3 C-8.33 2.01 -8.66 1.02 -9 0 C-2.25 -1.125 -2.25 -1.125 0 0 Z " fill="#DCA461" transform="translate(221,158)"/>
<path d="M0 0 C0.66 0.33 1.32 0.66 2 1 C-3.1946783 5.06540041 -8.54969151 8.33610133 -15 10 C-16.34352666 9.71047451 -17.67999084 9.38270707 -19 9 C-16.39704724 7.68504458 -13.79271967 6.37295014 -11.1875 5.0625 C-10.44951172 4.68931641 -9.71152344 4.31613281 -8.95117188 3.93164062 C-8.23896484 3.57392578 -7.52675781 3.21621094 -6.79296875 2.84765625 C-6.1383667 2.51773682 -5.48376465 2.18781738 -4.80932617 1.84790039 C-3 1 -3 1 0 0 Z " fill="#F3C785" transform="translate(169,66)"/>
<path d="M0 0 C0.99 0.33 1.98 0.66 3 1 C0.32365696 8.19541408 -2.40565066 15.21067348 -6 22 C-7.26649662 18.46030433 -6.74194326 16.64471147 -5.25 13.25 C-4.87875 12.38117188 -4.5075 11.51234375 -4.125 10.6171875 C-3.75375 9.75351562 -3.3825 8.88984375 -3 8 C-2.40662519 6.46217029 -1.82213264 4.92085838 -1.25 3.375 C-0.8375 2.26125 -0.425 1.1475 0 0 Z " fill="#F0C183" transform="translate(435,320)"/>
<path d="M0 0 C0.33 0 0.66 0 1 0 C1 1.65 1 3.3 1 5 C5.29 5 9.58 5 14 5 C14 4.01 14 3.02 14 2 C14.66 2 15.32 2 16 2 C16 3.65 16 5.3 16 7 C10.72 7 5.44 7 0 7 C-1 3 -1 3 0 0 Z " fill="#806764" transform="translate(230,351)"/>
<path d="M0 0 C2.97 0.495 2.97 0.495 6 1 C6 1.66 6 2.32 6 3 C6.99 3.33 7.98 3.66 9 4 C9.38218767 5.65614657 9.71395102 7.32457024 10 9 C9 10 9 10 7.14233398 10.11352539 C6.35157471 10.10828857 5.56081543 10.10305176 4.74609375 10.09765625 C3.89208984 10.09443359 3.03808594 10.09121094 2.15820312 10.08789062 C1.26037109 10.07951172 0.36253906 10.07113281 -0.5625 10.0625 C-1.46419922 10.05798828 -2.36589844 10.05347656 -3.29492188 10.04882812 C-5.53001314 10.03700225 -7.76497437 10.0205222 -10 10 C-10 9.67 -10 9.34 -10 9 C-4.06 9 1.88 9 8 9 C7.67 7.35 7.34 5.7 7 4 C6.21625 3.896875 5.4325 3.79375 4.625 3.6875 C2 3 2 3 0 0 Z " fill="#D2A066" transform="translate(320,348)"/>
<path d="M0 0 C0.33 0 0.66 0 1 0 C1.33 2.64 1.66 5.28 2 8 C1.01 8 0.02 8 -1 8 C-1.12117188 8.60328125 -1.24234375 9.2065625 -1.3671875 9.828125 C-1.61855469 11.02695312 -1.61855469 11.02695312 -1.875 12.25 C-2.03742188 13.03890625 -2.19984375 13.8278125 -2.3671875 14.640625 C-3.00486814 17.01815034 -3.68322142 18.91893735 -5 21 C-5.99 21.33 -6.98 21.66 -8 22 C-7.73445312 21.35675781 -7.46890625 20.71351563 -7.1953125 20.05078125 C-5.6587392 16.1290043 -4.26765899 12.16224204 -2.875 8.1875 C-2.59785156 7.39923828 -2.32070312 6.61097656 -2.03515625 5.79882812 C-1.35581555 3.86622095 -0.67777691 1.93315616 0 0 Z " fill="#E6AA64" transform="translate(258,296)"/>
<path d="M0 0 C0.66 0.33 1.32 0.66 2 1 C1.73445312 1.78503906 1.46890625 2.57007813 1.1953125 3.37890625 C-0.65784995 8.89105003 -2.46977545 14.38917664 -4 20 C-4.94482476 16.77692845 -5.19523408 13.79191247 -5.25 10.4375 C-5.27578125 9.48746094 -5.3015625 8.53742188 -5.328125 7.55859375 C-5 5 -5 5 -3.609375 3.16015625 C-2 2 -2 2 0 2 C0 1.34 0 0.68 0 0 Z " fill="#695D6E" transform="translate(207,288)"/>
<path d="M0 0 C0.33 0.99 0.66 1.98 1 3 C0.01 3.66 -0.98 4.32 -2 5 C-1.67 5.66 -1.34 6.32 -1 7 C-3.9465385 8.80066242 -6.88801935 10.50163895 -10 12 C-10 11.34 -10 10.68 -10 10 C-11.98 10.33 -13.96 10.66 -16 11 C-13.87726555 8.87726555 -12.44284252 8.27574453 -9.6875 7.1875 C-5.47591431 5.38738676 -2.97285983 3.45235335 0 0 Z " fill="#E7AA60" transform="translate(326,249)"/>
<path d="M0 0 C0.33 0.66 0.66 1.32 1 2 C1.66 2.33 2.32 2.66 3 3 C2.236875 4.0725 1.47375 5.145 0.6875 6.25 C-2.60722369 11.45416582 -3.77510931 17.02492346 -5 23 C-5.33 23 -5.66 23 -6 23 C-6.64080989 16.17893471 -5.93802705 11.79319276 -2.19140625 6.0078125 C-0.99395004 3.98980433 -0.44680338 2.2905093 0 0 Z " fill="#E2AC68" transform="translate(173,230)"/>
<path d="M0 0 C0.66 0 1.32 0 2 0 C2 0.99 2 1.98 2 3 C3.258125 2.835 4.51625 2.67 5.8125 2.5 C11.2144509 1.88926988 16.57060338 1.90866436 22 2 C18.07870833 4.540997 13.96746011 4.54873017 9.4375 4.8125 C8.66986328 4.87630859 7.90222656 4.94011719 7.11132812 5.00585938 C1.4826031 5.35428089 1.4826031 5.35428089 -1.02734375 3.51171875 C-1.34832031 3.01285156 -1.66929687 2.51398438 -2 2 C-1.34 1.34 -0.68 0.68 0 0 Z " fill="#F6B660" transform="translate(286,440)"/>
<path d="M0 0 C1 2 1 2 -0.0390625 5.484375 C-0.55940393 6.90930999 -1.08845727 8.33108604 -1.625 9.75 C-1.87378906 10.45382812 -2.12257812 11.15765625 -2.37890625 11.8828125 C-4.20478269 16.76998426 -6.46429907 20.1626181 -10 24 C-10 20.6223618 -9.52741576 20.07119118 -7.625 17.4375 C-4.99608975 13.44982716 -4.1598033 9.89993541 -3.5546875 5.19921875 C-2.91147382 2.6490124 -1.9920757 1.66365241 0 0 Z " fill="#746465" transform="translate(257,297)"/>
<path d="M0 0 C1.8871875 0.061875 1.8871875 0.061875 3.8125 0.125 C0.30665743 2.46222838 -3.26300049 3.53733172 -7.25 4.75 C-7.98283203 4.97945313 -8.71566406 5.20890625 -9.47070312 5.4453125 C-14.91469029 7.125 -14.91469029 7.125 -17.1875 7.125 C-16.8575 6.135 -16.5275 5.145 -16.1875 4.125 C-14.2265625 3.46484375 -14.2265625 3.46484375 -11.8125 3.0625 C-7.39882095 2.30771775 -4.49925245 -0.14751647 0 0 Z " fill="#72626A" transform="translate(311.1875,256.875)"/>
<path d="M0 0 C1.68550367 3.37100733 -0.31136964 6.72014632 -1.4375 10.125 C-1.68048828 10.87910156 -1.92347656 11.63320313 -2.17382812 12.41015625 C-2.77595819 14.27557879 -3.38713463 16.13807683 -4 18 C-4.99 16.68 -5.98 15.36 -7 14 C-7.99 14.495 -7.99 14.495 -9 15 C-8.67 14.01 -8.34 13.02 -8 12 C-6.35 11.67 -4.7 11.34 -3 11 C-3 7.7 -3 4.4 -3 1 C-2.01 0.67 -1.02 0.34 0 0 Z " fill="#76646E" transform="translate(174,250)"/>
<path d="M0 0 C8.57142857 -0.14285714 8.57142857 -0.14285714 12 1 C12 1.66 12 2.32 12 3 C11.26394531 2.95359375 10.52789062 2.9071875 9.76953125 2.859375 C3.5911412 2.53725008 3.5911412 2.53725008 -2 4.8125 C-2.66 5.534375 -3.32 6.25625 -4 7 C-4.8971875 7.86625 -4.8971875 7.86625 -5.8125 8.75 C-6.4003125 9.36875 -6.4003125 9.36875 -7 10 C-7 8.35 -7 6.7 -7 5 C-6.01 5 -5.02 5 -4 5 C-4 4.34 -4 3.68 -4 3 C-2.68 2.67 -1.36 2.34 0 2 C0 1.34 0 0.68 0 0 Z " fill="#DDA864" transform="translate(234,127)"/>
<path d="M0 0 C1.32 0 2.64 0 4 0 C5.38591277 7.69766007 4.48407886 13.61793513 2 21 C0.9271841 17.27295811 1.34861019 14.8359622 2 11 C2.08844223 7.99787759 2.06005064 5.00253184 2 2 C1.01 2.33 0.02 2.66 -1 3 C-0.67 2.01 -0.34 1.02 0 0 Z " fill="#7E686A" transform="translate(189,284)"/>
<path d="M0 0 C3.13528595 0.71289565 6.06680209 1.7092533 9.0625 2.875 C9.91972656 3.20242187 10.77695312 3.52984375 11.66015625 3.8671875 C13.96958203 4.98527344 15.32749836 6.08073582 17 8 C13.21762028 7.48422095 10.36885476 6.73547063 7 5 C4.6756398 4.30269194 2.34326294 3.63087848 0 3 C0 2.01 0 1.02 0 0 Z " fill="#F1CA8C" transform="translate(331,67)"/>
<path d="M0 0 C0.33 0 0.66 0 1 0 C1.08131463 1.43655854 1.13933559 2.8744483 1.1875 4.3125 C1.22230469 5.11300781 1.25710937 5.91351563 1.29296875 6.73828125 C0.93167694 9.52745402 0.04367233 10.16223924 -2 12 C-2.33 12.99 -2.66 13.98 -3 15 C-3.99 15 -4.98 15 -6 15 C-4.36041242 9.76727367 -2.61047965 4.84803364 0 0 Z " fill="#F4C078" transform="translate(70,160)"/>
<path d="M0 0 C2.64 0.66 5.28 1.32 8 2 C8.33 3.32 8.66 4.64 9 6 C13.455 6.99 13.455 6.99 18 8 C18 8.99 18 9.98 18 11 C13.59964093 9.6961899 10.03959815 7.98726447 6.1875 5.5 C5.23230469 4.8915625 4.27710938 4.283125 3.29296875 3.65625 C1 2 1 2 0 0 Z " fill="#F2C989" transform="translate(140,417)"/>
<path d="M0 0 C-6.81310378 4.25818986 -13.08984542 5.81347681 -21 7 C-18.15479656 4.70018198 -15.4655319 3.20684916 -12.0625 1.875 C-10.81146484 1.37613281 -10.81146484 1.37613281 -9.53515625 0.8671875 C-2.84354986 -1.42177493 -2.84354986 -1.42177493 0 0 Z " fill="#826969" transform="translate(282,163)"/>
<path d="M0 0 C1.32 0 2.64 0 4 0 C5.40697017 6.97671158 6.35150733 12.97216188 5 20 C4.01 20 3.02 20 2 20 C2.165 19.360625 2.33 18.72125 2.5 18.0625 C3.60749418 11.27909815 3.71109315 6.03052638 0 0 Z " fill="#C79766" transform="translate(246,130)"/>
<path d="M0 0 C0.66 0.33 1.32 0.66 2 1 C0 4 0 4 -3 5 C-3.53625 5.61875 -4.0725 6.2375 -4.625 6.875 C-7.98452363 9.88088956 -11.71736235 10.79207656 -16 12 C-12.8980055 8.65707389 -9.56424638 6.23755199 -5.75 3.75 C-4.67234375 3.04359375 -3.5946875 2.3371875 -2.484375 1.609375 C-1.66453125 1.07828125 -0.8446875 0.5471875 0 0 Z " fill="#F2CD8E" transform="translate(148,76)"/>
<path d="M0 0 C4.62609198 -0.3227506 7.28026121 0.15549386 11 3 C11 3.66 11 4.32 11 5 C11.7425 4.9175 12.485 4.835 13.25 4.75 C16.78157027 5.07105184 17.76630364 6.35265617 20 9 C12.84870304 7.12849037 6.50594543 4.50213658 0 1 C0 0.67 0 0.34 0 0 Z " fill="#EFC88E" transform="translate(165,431)"/>
<path d="M0 0 C2.55403148 2.55403148 2.32607024 3.64009225 2.375 7.1875 C2.28900029 12.64131472 1.22486151 15.63695208 -2 20 C-2.66 20.33 -3.32 20.66 -4 21 C-3.69255859 19.93072266 -3.69255859 19.93072266 -3.37890625 18.83984375 C-1.607796 12.54350445 0 6.57768402 0 0 Z " fill="#E2AB65" transform="translate(212,270)"/>
<path d="M0 0 C1.32 0.66 2.64 1.32 4 2 C2.78395887 3.32467011 1.55154778 4.63432405 0.3125 5.9375 C-0.37199219 6.66839844 -1.05648438 7.39929688 -1.76171875 8.15234375 C-4.23537632 10.19429843 -5.85043641 10.65249999 -9 11 C-9 10.34 -9 9.68 -9 9 C-7.68 9 -6.36 9 -5 9 C-5 8.01 -5 7.02 -5 6 C-4.01 6 -3.02 6 -2 6 C-1.855625 5.195625 -1.71125 4.39125 -1.5625 3.5625 C-1 1 -1 1 0 0 Z " fill="#675E73" transform="translate(324,246)"/>
<path d="M0 0 C0.66 0.33 1.32 0.66 2 1 C1.67 1.99 1.34 2.98 1 4 C1.33 4.99 1.66 5.98 2 7 C0.68 8.32 -0.64 9.64 -2 11 C-2.66 10.67 -3.32 10.34 -4 10 C-3.34 9.01 -2.68 8.02 -2 7 C-3.32 7 -4.64 7 -6 7 C-4.60667426 3.63279613 -3.0210714 2.0140476 0 0 Z " fill="#706068" transform="translate(221,143)"/>
<path d="M0 0 C2.51616834 0.56543109 3.4562812 1.51731443 5.0859375 3.46875 C4.38726562 3.44554687 3.68859375 3.42234375 2.96875 3.3984375 C1.60363281 3.37136719 1.60363281 3.37136719 0.2109375 3.34375 C-0.69398438 3.32054687 -1.59890625 3.29734375 -2.53125 3.2734375 C-5.10213244 3.22550164 -5.10213244 3.22550164 -6.9140625 5.46875 C-9.5390625 5.59375 -9.5390625 5.59375 -11.9140625 5.46875 C-8.22236395 0.705268 -5.73343009 -0.07827208 0 0 Z " fill="#6F5D69" transform="translate(241.9140625,128.53125)"/>
<path d="M0 0 C2.47330257 2.47330257 2.29746708 3.46232023 2.5 6.875 C2.71584326 10.49037459 3.34002255 12.8035145 5 16 C4.625 18.25 4.625 18.25 4 20 C1.18602378 14.61674115 -0.14224488 10.81061108 -0.0625 4.75 C-0.05347656 3.85796875 -0.04445313 2.9659375 -0.03515625 2.046875 C-0.02355469 1.37140625 -0.01195312 0.6959375 0 0 Z " fill="#EAB065" transform="translate(305,308)"/>
<path d="M0 0 C0 3.93974955 -1.47789475 5.82936093 -3.5 9.1875 C-4.1496875 10.27417969 -4.799375 11.36085938 -5.46875 12.48046875 C-6.22671875 13.72763672 -6.22671875 13.72763672 -7 15 C-7.33 13.68 -7.66 12.36 -8 11 C-8.66 11 -9.32 11 -10 11 C-10 10.34 -10 9.68 -10 9 C-8.68 9.33 -7.36 9.66 -6 10 C-6 8.35 -6 6.7 -6 5 C-5.34 5 -4.68 5 -4 5 C-3.8453125 4.0409375 -3.8453125 4.0409375 -3.6875 3.0625 C-3.460625 2.381875 -3.23375 1.70125 -3 1 C-2.01 0.67 -1.02 0.34 0 0 Z " fill="#6E626C" transform="translate(167,305)"/>
<path d="M0 0 C0.75 1.625 0.75 1.625 1 4 C-1.05137856 8.27370534 -2.24771647 9.7241627 -6.75 11.375 C-7.8225 11.58125 -8.895 11.7875 -10 12 C-8.88625 10.948125 -8.88625 10.948125 -7.75 9.875 C-5.07691 7.08040591 -3.07068166 4.25392833 -1 1 C-0.67 0.67 -0.34 0.34 0 0 Z " fill="#6E616B" transform="translate(166,288)"/>
<path d="M0 0 C3.125 -0.1875 3.125 -0.1875 6 0 C3.57068408 4.60291437 0.68796305 7.65601848 -4 10 C-4.33 8.35 -4.66 6.7 -5 5 C-3.68 5.33 -2.36 5.66 -1 6 C-1.33 5.01 -1.66 4.02 -2 3 C-1.34 2.01 -0.68 1.02 0 0 Z " fill="#DBA562" transform="translate(214,149)"/>
<path d="M0 0 C5.6143991 1.56448671 10.86810338 3.16395187 16 6 C15.34 6.66 14.68 7.32 14 8 C11.375 7.625 11.375 7.625 9 7 C9 6.34 9 5.68 9 5 C5.7 4.34 2.4 3.68 -1 3 C-0.67 2.01 -0.34 1.02 0 0 Z " fill="#EFC27B" transform="translate(315,60)"/>
<path d="M0 0 C4.13767263 4.43322068 5.95528874 9.39879629 8 15 C7.01 15 6.02 15 5 15 C5 13.68 5 12.36 5 11 C4.34 11 3.68 11 3 11 C3 11.66 3 12.32 3 13 C2.34 12.67 1.68 12.34 1 12 C1.66 11.01 2.32 10.02 3 9 C2.6878236 6.35367713 2.6878236 6.35367713 2 4 C1.34 4 0.68 4 0 4 C0 2.68 0 1.36 0 0 Z " fill="#F3BA70" transform="translate(423,149)"/>
<path d="M0 0 C1.65 0 3.3 0 5 0 C5.3125 2.75 5.3125 2.75 5 6 C2.5 8.375 2.5 8.375 0 10 C0 6.66666667 0 3.33333333 0 0 Z " fill="#605B74" transform="translate(328,155)"/>
<path d="M0 0 C0.66 0 1.32 0 2 0 C1.32902328 4.19360449 -0.8558394 7.40334352 -3 11 C-3.66 11 -4.32 11 -5 11 C-5 8.69 -5 6.38 -5 4 C-3.68 4 -2.36 4 -1 4 C-0.67 2.68 -0.34 1.36 0 0 Z " fill="#F1BF76" transform="translate(426,342)"/>
<path d="M0 0 C0.66 0 1.32 0 2 0 C4 3 4 3 4 7 C4.66 7 5.32 7 6 7 C6 8.32 6 9.64 6 11 C6.66 11 7.32 11 8 11 C8.33 12.98 8.66 14.96 9 17 C6.00641141 14.41994017 4.54433112 11.45675187 2.8125 7.9375 C2.28269531 6.87402344 1.75289063 5.81054688 1.20703125 4.71484375 C0 2 0 2 0 0 Z " fill="#E6AB63" transform="translate(311,331)"/>
<path d="M0 0 C0.78503906 0.33773438 1.57007813 0.67546875 2.37890625 1.0234375 C7.8651887 3.35258318 13.21387072 5.55346768 19 7 C19 7.33 19 7.66 19 8 C15.37 7.67 11.74 7.34 8 7 C8 6.34 8 5.68 8 5 C6.68 5 5.36 5 4 5 C4 4.34 4 3.68 4 3 C2.68 2.67 1.36 2.34 0 2 C0 1.34 0 0.68 0 0 Z " fill="#E5AA63" transform="translate(216,268)"/>
<path d="M0 0 C1.59826058 4.79478174 -0.81550263 8.62384298 -3 13 C-5.25 15.625 -5.25 15.625 -7 17 C-6.25 10.375 -6.25 10.375 -4 7 C-3.34 7 -2.68 7 -2 7 C-1.34 4.69 -0.68 2.38 0 0 Z " fill="#6C5D68" transform="translate(336,228)"/>
<path d="M0 0 C3.3 0 6.6 0 10 0 C10 0.33 10 0.66 10 1 C7.06520402 1.86458312 4.12778481 2.71697187 1.1875 3.5625 C0.35412109 3.80935547 -0.47925781 4.05621094 -1.33789062 4.31054688 C-2.14033203 4.53935547 -2.94277344 4.76816406 -3.76953125 5.00390625 C-4.50792236 5.21861572 -5.24631348 5.4333252 -6.00708008 5.65454102 C-8 6 -8 6 -11 5 C-9.73160474 4.49384702 -8.46016898 3.99530901 -7.1875 3.5 C-6.12595703 3.08234375 -6.12595703 3.08234375 -5.04296875 2.65625 C-3 2 -3 2 0 2 C0 1.34 0 0.68 0 0 Z " fill="#E3AA66" transform="translate(288,157)"/>
<path d="M0 0 C2.24226443 3.36339665 3.42592747 6.76340552 4.6875 10.5625 C4.92533203 11.24763672 5.16316406 11.93277344 5.40820312 12.63867188 C5.99980093 14.40652572 6.5063209 16.20234149 7 18 C6.67 18.66 6.34 19.32 6 20 C1.86595851 14.29108557 0 6.97440028 0 0 Z " fill="#E2A968" transform="translate(203,317)"/>
<path d="M0 0 C0.99 0.33 1.98 0.66 3 1 C3 1.66 3 2.32 3 3 C3.66 3 4.32 3 5 3 C4.67 2.01 4.34 1.02 4 0 C4.99 0.33 5.98 0.66 7 1 C7.33 3.31 7.66 5.62 8 8 C6.25 7.9375 6.25 7.9375 4 7 C2.40498463 4.75835678 1.25456982 2.46433357 0 0 Z " fill="#645D77" transform="translate(278,288)"/>
<path d="M0 0 C0 0.33 0 0.66 0 1 C-0.8353125 1.02126953 -0.8353125 1.02126953 -1.6875 1.04296875 C-7.266045 1.39162781 -10.75016018 2.65598055 -15.2734375 5.94140625 C-17 7 -17 7 -20 7 C-18.88601599 3.65804797 -18.57482952 3.38373572 -15.625 1.8125 C-10.51434075 -0.63132433 -5.54862995 -0.36718875 0 0 Z " fill="#776063" transform="translate(368,196)"/>
<path d="M0 0 C1.98 0.66 3.96 1.32 6 2 C4.35 3.65 2.7 5.3 1 7 C0.67 6.34 0.34 5.68 0 5 C-0.99 4.67 -1.98 4.34 -3 4 C-2.01 2.68 -1.02 1.36 0 0 Z " fill="#5F5C78" transform="translate(307,177)"/>
<path d="M0 0 C3.59634744 3.49359465 6.83451967 7.11098131 10 11 C9.01 11.495 9.01 11.495 8 12 C8 11.34 8 10.68 8 10 C6.68 9.67 5.36 9.34 4 9 C3.896875 8.360625 3.79375 7.72125 3.6875 7.0625 C3.460625 6.381875 3.23375 5.70125 3 5 C2.01 4.67 1.02 4.34 0 4 C0 2.68 0 1.36 0 0 Z " fill="#EEC484" transform="translate(391,107)"/>
<path d="M0 0 C0 0.66 0 1.32 0 2 C2.31 1.34 4.62 0.68 7 0 C7 0.66 7 1.32 7 2 C7.99 2.33 8.98 2.66 10 3 C7.5622037 3.05397335 5.12560315 3.09365616 2.6875 3.125 C1.65206055 3.15013672 1.65206055 3.15013672 0.59570312 3.17578125 C-3.17135396 3.21217794 -4.78431704 3.14378864 -8 1 C-2.25 0 -2.25 0 0 0 Z " fill="#F5BA71" transform="translate(208,443)"/>
<path d="M0 0 C1.91302307 3.26613695 2.35674661 5.99445248 2.625 9.75 C2.69976562 10.73484375 2.77453125 11.7196875 2.8515625 12.734375 C2.92503906 13.85585937 2.92503906 13.85585937 3 15 C2.34 15 1.68 15 1 15 C1 12.69 1 10.38 1 8 C0.01 8 -0.98 8 -2 8 C-1.47731534 5.23723823 -0.89130413 2.6739124 0 0 Z " fill="#F2C07C" transform="translate(444,200)"/>
<path d="M0 0 C1.32 0 2.64 0 4 0 C4 0.66 4 1.32 4 2 C5.32 2 6.64 2 8 2 C8.66 3.65 9.32 5.3 10 7 C10.99 7 11.98 7 13 7 C13 7.66 13 8.32 13 9 C7.97290493 7.42903279 3.97133531 4.38006951 0 1 C0 0.67 0 0.34 0 0 Z " fill="#F2C98E" transform="translate(125,407)"/>
<path d="M0 0 C1.35814777 4.0744433 -0.05254238 6.81468116 -1.4375 10.6875 C-1.68048828 11.38939453 -1.92347656 12.09128906 -2.17382812 12.81445312 C-2.7744944 14.54578532 -3.38619719 16.27328137 -4 18 C-4.33 18 -4.66 18 -5 18 C-5 15.36 -5 12.72 -5 10 C-4.34 10 -3.68 10 -3 10 C-2.86722656 9.36191406 -2.73445312 8.72382813 -2.59765625 8.06640625 C-2.42105469 7.24011719 -2.24445313 6.41382813 -2.0625 5.5625 C-1.88847656 4.73878906 -1.71445313 3.91507812 -1.53515625 3.06640625 C-1 1 -1 1 0 0 Z " fill="#E3AA69" transform="translate(238,314)"/>
<path d="M0 0 C1.4540625 0.0309375 1.4540625 0.0309375 2.9375 0.0625 C1.98328192 1.21176266 1.02397955 2.35680541 0.0625 3.5 C-0.47117187 4.13808594 -1.00484375 4.77617187 -1.5546875 5.43359375 C-3.0625 7.0625 -3.0625 7.0625 -5.0625 8.0625 C-5.0625 6.7425 -5.0625 5.4225 -5.0625 4.0625 C-4.4025 4.0625 -3.7425 4.0625 -3.0625 4.0625 C-3.3925 3.0725 -3.7225 2.0825 -4.0625 1.0625 C-3.0625 0.0625 -3.0625 0.0625 0 0 Z " fill="#F3C274" transform="translate(400.0625,379.9375)"/>
<path d="M0 0 C-0.83144531 0.61488281 -0.83144531 0.61488281 -1.6796875 1.2421875 C-2.40414062 1.78101563 -3.12859375 2.31984375 -3.875 2.875 C-4.59429687 3.40867187 -5.31359375 3.94234375 -6.0546875 4.4921875 C-8.08252632 5.99873162 -8.08252632 5.99873162 -10 8 C-10.36407767 3.50970874 -10.36407767 3.50970874 -8.75 1.25 C-5.54621538 -1.03841759 -3.73919214 -1.24639738 0 0 Z " fill="#695E6E" transform="translate(187,289)"/>
<path d="M0 0 C1.32 0.66 2.64 1.32 4 2 C2.8572081 3.16964602 1.71068285 4.33564556 0.5625 5.5 C-0.07558594 6.1496875 -0.71367187 6.799375 -1.37109375 7.46875 C-3 9 -3 9 -4 9 C-4 7.35 -4 5.7 -4 4 C-3.34 4 -2.68 4 -2 4 C-1.34 2.68 -0.68 1.36 0 0 Z " fill="#F5C382" transform="translate(384,394)"/>
<path d="M0 0 C0.66 0 1.32 0 2 0 C2 3.3 2 6.6 2 10 C1.01 10.495 1.01 10.495 0 11 C-1.85776765 7.86501708 -2.20140476 5.62528568 -2 2 C-1.34 2 -0.68 2 0 2 C0 1.34 0 0.68 0 0 Z " fill="#F3BB6C" transform="translate(66,320)"/>
<path d="M0 0 C1.32 0 2.64 0 4 0 C4 0.99 4 1.98 4 3 C6.97 3.495 6.97 3.495 10 4 C10 5.65 10 7.3 10 9 C8.70391053 8.06862408 7.41328368 7.1296434 6.125 6.1875 C5.40570313 5.66542969 4.68640625 5.14335937 3.9453125 4.60546875 C2 3 2 3 0 0 Z " fill="#F1C98F" transform="translate(107,391)"/>
<path d="M0 0 C0.99 0.33 1.98 0.66 3 1 C1.85821872 2.66944521 0.71147095 4.3354948 -0.4375 6 C-1.07558594 6.928125 -1.71367187 7.85625 -2.37109375 8.8125 C-2.90863281 9.534375 -3.44617188 10.25625 -4 11 C-4.33 11 -4.66 11 -5 11 C-5.33 9.02 -5.66 7.04 -6 5 C-4.68 5 -3.36 5 -2 5 C-2 4.34 -2 3.68 -2 3 C-1.34 3 -0.68 3 0 3 C0 2.01 0 1.02 0 0 Z " fill="#F0C47D" transform="translate(409,368)"/>
<path d="M0 0 C1.2065625 0.0309375 1.2065625 0.0309375 2.4375 0.0625 C-0.58522532 3.31774265 -3.81968301 5.68070737 -7.5625 8.0625 C-7.5625 6.7425 -7.5625 5.4225 -7.5625 4.0625 C-6.5725 4.0625 -5.5825 4.0625 -4.5625 4.0625 C-4.2325 3.0725 -3.9025 2.0825 -3.5625 1.0625 C-2.5625 0.0625 -2.5625 0.0625 0 0 Z " fill="#E5AD61" transform="translate(222.5625,139.9375)"/>
<path d="M0 0 C3 1 3 1 4 3 C6.02463255 3.65213292 6.02463255 3.65213292 8 4 C8.33 3.01 8.66 2.02 9 1 C9 2.65 9 4.3 9 6 C7.3125 6.8125 7.3125 6.8125 5 7 C2.25 4.6875 2.25 4.6875 0 2 C0 1.34 0 0.68 0 0 Z " fill="#80625E" transform="translate(138,351)"/>
<path d="M0 0 C0.33 0.66 0.66 1.32 1 2 C-0.21484375 4.6015625 -0.21484375 4.6015625 -1.9375 7.625 C-2.78634766 9.12933594 -2.78634766 9.12933594 -3.65234375 10.6640625 C-4.09707031 11.43492187 -4.54179687 12.20578125 -5 13 C-6.231394 9.30581799 -5.64432764 6.7943739 -5 3 C-4.67 3.66 -4.34 4.32 -4 5 C-3.34 5 -2.68 5 -2 5 C-1.855625 4.360625 -1.71125 3.72125 -1.5625 3.0625 C-1 1 -1 1 0 0 Z " fill="#6C6066" transform="translate(264,283)"/>
<path d="M0 0 C1.95901454 0.11382653 3.9172338 0.24141125 5.875 0.375 C6.96554688 0.44460938 8.05609375 0.51421875 9.1796875 0.5859375 C12 1 12 1 14 3 C8.87160006 4.81975482 4.82315618 2.8599099 0 1 C0 0.67 0 0.34 0 0 Z " fill="#766566" transform="translate(226,272)"/>
<path d="M0 0 C1.0209375 0.14888672 1.0209375 0.14888672 2.0625 0.30078125 C4 0.6875 4 0.6875 7 1.6875 C7 2.6775 7 3.6675 7 4.6875 C5.68 4.3575 4.36 4.0275 3 3.6875 C3 3.0275 3 2.3675 3 1.6875 C-0.3 1.6875 -3.6 1.6875 -7 1.6875 C-3.80545772 -0.44219485 -3.50853075 -0.5515304 0 0 Z " fill="#EDAD62" transform="translate(359,179.3125)"/>
<path d="M0 0 C1 3 1 3 -0.25 6.0625 C-2 9 -2 9 -5 11 C-4.26023275 7.1532103 -2.81328141 2.81328141 0 0 Z " fill="#F3BD70" transform="translate(94,123)"/>
<path d="M0 0 C1.95901454 0.11382653 3.9172338 0.24141125 5.875 0.375 C6.96554688 0.44460938 8.05609375 0.51421875 9.1796875 0.5859375 C12 1 12 1 14 3 C10.45332822 4.25127906 8.27746562 3.72285053 4.75 2.5625 C3.85796875 2.27503906 2.9659375 1.98757813 2.046875 1.69140625 C1.37140625 1.46324219 0.6959375 1.23507812 0 1 C0 0.67 0 0.34 0 0 Z " fill="#F2C685" transform="translate(186,440)"/>
<path d="M0 0 C2.31 0 4.62 0 7 0 C3.80009492 2.74277578 0.99500618 4.6302836 -3 6 C-3.33 5.34 -3.66 4.68 -4 4 C-2.68 4 -1.36 4 0 4 C0 2.68 0 1.36 0 0 Z " fill="#F3BD76" transform="translate(347,421)"/>
<path d="M0 0 C1.32 0.33 2.64 0.66 4 1 C2.71283353 2.00578589 1.42011342 3.00446798 0.125 4 C-0.95394531 4.8353125 -0.95394531 4.8353125 -2.0546875 5.6875 C-4 7 -4 7 -6 7 C-5.25 5.0625 -5.25 5.0625 -4 3 C-1.875 2.25 -1.875 2.25 0 2 C0 1.34 0 0.68 0 0 Z " fill="#F0C98A" transform="translate(368,409)"/>
<path d="M0 0 C1 2 1 2 0.22265625 4.8203125 C-0.16019531 5.91085937 -0.54304687 7.00140625 -0.9375 8.125 C-1.31777344 9.22070312 -1.69804687 10.31640625 -2.08984375 11.4453125 C-2.39019531 12.28835938 -2.69054687 13.13140625 -3 14 C-3.33 14 -3.66 14 -4 14 C-4 11.36 -4 8.72 -4 6 C-3.34 6 -2.68 6 -2 6 C-1.855625 5.195625 -1.71125 4.39125 -1.5625 3.5625 C-1 1 -1 1 0 0 Z " fill="#716366" transform="translate(151,336)"/>
<path d="M0 0 C0.33 0 0.66 0 1 0 C1.45732667 5.71658336 0.52273754 8.48649253 -3 13 C-4 11 -4 11 -3.22265625 8.3984375 C-2.83980469 7.40070313 -2.45695313 6.40296875 -2.0625 5.375 C-1.68222656 4.37210937 -1.30195313 3.36921875 -0.91015625 2.3359375 C-0.60980469 1.56507813 -0.30945313 0.79421875 0 0 Z " fill="#736468" transform="translate(236,324)"/>
<path d="M0 0 C0.33 0 0.66 0 1 0 C1 5.61 1 11.22 1 17 C0.67 17 0.34 17 0 17 C-0.144375 15.9275 -0.28875 14.855 -0.4375 13.75 C-0.85389686 10.24122492 -0.85389686 10.24122492 -1.6875 7.9375 C-2.16363112 4.98548707 -1.05701147 2.73579439 0 0 Z " fill="#D8A773" transform="translate(175,248)"/>
<path d="M0 0 C0.66 0 1.32 0 2 0 C1.71517632 1.41805831 1.42181856 2.83440379 1.125 4.25 C0.88136719 5.43335938 0.88136719 5.43335938 0.6328125 6.640625 C0.00849925 8.96831144 -0.84838542 10.89031952 -2 13 C-2.16682272 8.07872966 -2.24828052 4.49656104 0 0 Z " fill="#ECAD61" transform="translate(165,253)"/>
<path d="M0 0 C1.25955231 3.77865693 0.48087189 5.03411786 -0.9375 8.6875 C-1.31777344 9.68136719 -1.69804687 10.67523438 -2.08984375 11.69921875 C-2.39019531 12.45847656 -2.69054687 13.21773437 -3 14 C-4.11017502 10.66947495 -3.87254667 9.25587782 -3.1875 5.875 C-3.01605469 4.98554688 -2.84460938 4.09609375 -2.66796875 3.1796875 C-2.44753906 2.46039063 -2.22710937 1.74109375 -2 1 C-1.34 0.67 -0.68 0.34 0 0 Z " fill="#6D6066" transform="translate(341,214)"/>
<path d="M0 0 C0.66 0 1.32 0 2 0 C1.71382813 0.70511719 1.42765625 1.41023437 1.1328125 2.13671875 C-0.00476831 5.01205232 -1.07392356 7.90452186 -2.125 10.8125 C-2.47820312 11.78832031 -2.83140625 12.76414063 -3.1953125 13.76953125 C-3.46085937 14.50558594 -3.72640625 15.24164063 -4 16 C-5.41131097 12.23948152 -4.5449072 9.97977756 -3.125 6.3125 C-2.75632812 5.33925781 -2.38765625 4.36601562 -2.0078125 3.36328125 C-1 1 -1 1 0 0 Z " fill="#876A60" transform="translate(326,182)"/>
<path d="M0 0 C2.475 0.99 2.475 0.99 5 2 C5 2.66 5 3.32 5 4 C5.99 4.33 6.98 4.66 8 5 C7.67 6.32 7.34 7.64 7 9 C5.5 7.625 5.5 7.625 4 6 C4 5.34 4 4.68 4 4 C3.34 4 2.68 4 2 4 C1.34 2.68 0.68 1.36 0 0 Z " fill="#F1CA90" transform="translate(93,375)"/>
<path d="M0 0 C3.05936637 3.75467691 5 7.08113061 5 12 C4.34 12 3.68 12 3 12 C3 11.01 3 10.02 3 9 C2.34 9 1.68 9 1 9 C0.67 6.03 0.34 3.06 0 0 Z " fill="#DEA765" transform="translate(298,324)"/>
<path d="M0 0 C3.47691793 1.15897264 4.22015595 1.8640843 6 5 C6.1875 8.25 6.1875 8.25 6 11 C5.01 11.495 5.01 11.495 4 12 C3.71125 10.7625 3.4225 9.525 3.125 8.25 C2.38665206 5.27551258 1.55525067 2.666144 0 0 Z " fill="#E7B163" transform="translate(366,184)"/>
<path d="M0 0 C1.65 0 3.3 0 5 0 C2.34345343 3.73884332 0.41889613 5.64978174 -4 7 C-4 6.34 -4 5.68 -4 5 C-4.66 4.67 -5.32 4.34 -6 4 C-4 3 -4 3 0 3 C0 2.01 0 1.02 0 0 Z " fill="#6B5D6E" transform="translate(300,185)"/>
<path d="M0 0 C2.40072955 2.88087546 4.47291037 5.56404834 6 9 C4.35 9.33 2.7 9.66 1 10 C0.67 6.7 0.34 3.4 0 0 Z " fill="#E6AA60" transform="translate(272,280)"/>
<path d="M0 0 C3.28788824 3.11016455 5.83735988 6.01618925 8 10 C7.01 10.495 7.01 10.495 6 11 C4.98805294 9.92781799 3.99081943 8.84173622 3 7.75 C2.443125 7.14671875 1.88625 6.5434375 1.3125 5.921875 C0 4 0 4 0 0 Z " fill="#EFC682" transform="translate(406,124)"/>
<path d="M0 0 C0.66 0 1.32 0 2 0 C2 0.99 2 1.98 2 3 C2.99 3.33 3.98 3.66 5 4 C5 4.99 5 5.98 5 7 C5.66 7.33 6.32 7.66 7 8 C6.67 8.99 6.34 9.98 6 11 C4.9944239 9.54550599 3.99569565 8.08627557 3 6.625 C2.443125 5.81289063 1.88625 5.00078125 1.3125 4.1640625 C0 2 0 2 0 0 Z " fill="#F1D39A" transform="translate(75,348)"/>
<path d="M0 0 C2.67901932 2.31881505 3.66204403 4.31814468 4.6875 7.6875 C4.93886719 8.49574219 5.19023437 9.30398438 5.44921875 10.13671875 C5.63097656 10.75160156 5.81273437 11.36648438 6 12 C3 11 3 11 1.3125 7.6875 C0 4 0 4 0 0 Z " fill="#DFA467" transform="translate(198,334)"/>
<path d="M0 0 C0.66 0.33 1.32 0.66 2 1 C1.75 2.875 1.75 2.875 1 5 C-1.0625 6.25 -1.0625 6.25 -3 7 C-2.25 2.25 -2.25 2.25 0 0 Z " fill="#F8B258" transform="translate(211,288)"/>
<path d="M0 0 C0.33 0 0.66 0 1 0 C1.125 7.75 1.125 7.75 0 10 C-0.66 10 -1.32 10 -2 10 C-2.17942163 6.05272412 -2.09350689 3.4019487 0 0 Z " fill="#EEAF60" transform="translate(340,222)"/>
<path d="M0 0 C0 4.38968456 -2.12805101 5.76905739 -5 9 C-6.32 8.67 -7.64 8.34 -9 8 C-6.03 5.36 -3.06 2.72 0 0 Z " fill="#7F6563" transform="translate(201,204)"/>
<path d="M0 0 C0.99 0.33 1.98 0.66 3 1 C0.42215154 3.64752004 -1.91648098 5.94432065 -5 8 C-5 6.68 -5 5.36 -5 4 C-3.68 4 -2.36 4 -1 4 C-0.67 2.68 -0.34 1.36 0 0 Z " fill="#E6AC5E" transform="translate(209,194)"/>
<path d="M0 0 C-0.99 3.96 -1.98 7.92 -3 12 C-3.33 12 -3.66 12 -4 12 C-4 8.37 -4 4.74 -4 1 C-2 0 -2 0 0 0 Z " fill="#CFA36F" transform="translate(225,158)"/>
<path d="M0 0 C2.97 0 5.94 0 9 0 C6.06171403 2.50298434 3.82097239 3.46930939 0 4 C0 2.68 0 1.36 0 0 Z " fill="#F3BD75" transform="translate(335,427)"/>
<path d="M0 0 C0.66 0.33 1.32 0.66 2 1 C0.63016497 4.16115776 0.0109362 4.9927092 -3 7 C-3.99 6.67 -4.98 6.34 -6 6 C-4.02 4.02 -2.04 2.04 0 0 Z " fill="#D6A063" transform="translate(176,297)"/>
<path d="M0 0 C0.66 0 1.32 0 2 0 C2 0.66 2 1.32 2 2 C3.32 2.33 4.64 2.66 6 3 C2.25 6 2.25 6 0 6 C0 4.02 0 2.04 0 0 Z " fill="#DBA669" transform="translate(153,276)"/>
<path d="M0 0 C0.33 0.66 0.66 1.32 1 2 C1.66 2.33 2.32 2.66 3 3 C0.69 4.98 -1.62 6.96 -4 9 C-4.33 8.34 -4.66 7.68 -5 7 C-4.34 7 -3.68 7 -3 7 C-3.33 6.01 -3.66 5.02 -4 4 C-2.68 4 -1.36 4 0 4 C0 2.68 0 1.36 0 0 Z " fill="#E6AC64" transform="translate(199,201)"/>
<path d="M0 0 C1.32 0 2.64 0 4 0 C4 0.66 4 1.32 4 2 C5.32 2.33 6.64 2.66 8 3 C7.67 3.99 7.34 4.98 7 6 C3.535 4.02 3.535 4.02 0 2 C0 1.34 0 0.68 0 0 Z " fill="#DCA765" transform="translate(216,348)"/>
<path d="M0 0 C0.33 0.66 0.66 1.32 1 2 C1.66 2.33 2.32 2.66 3 3 C1.7260411 5.03833424 0.38938077 7.03852126 -1 9 C-1.66 9 -2.32 9 -3 9 C-1.125 2.25 -1.125 2.25 0 0 Z " fill="#E8B05E" transform="translate(173,230)"/>
<path d="M0 0 C0.99 0.33 1.98 0.66 3 1 C2.37755401 2.27208622 1.75193233 3.54261882 1.125 4.8125 C0.77695312 5.52019531 0.42890625 6.22789062 0.0703125 6.95703125 C-1 9 -1 9 -3 12 C-2.14285714 3.42857143 -2.14285714 3.42857143 0 0 Z " fill="#726068" transform="translate(345,202)"/>
<path d="M0 0 C2 1 2 1 2.8515625 3.28515625 C3.10679687 4.20167969 3.36203125 5.11820313 3.625 6.0625 C3.88539063 6.98160156 4.14578125 7.90070313 4.4140625 8.84765625 C4.60742188 9.55792969 4.80078125 10.26820313 5 11 C4.34 10.67 3.68 10.34 3 10 C3 9.01 3 8.02 3 7 C2.34 7 1.68 7 1 7 C0.67 4.69 0.34 2.38 0 0 Z " fill="#EFC785" transform="translate(431,165)"/>
<path d="M0 0 C2.38564077 0.57584432 4.66682784 1.22227595 7 2 C7 2.66 7 3.32 7 4 C5.02 4 3.04 4 1 4 C0.67 2.68 0.34 1.36 0 0 Z " fill="#F3C075" transform="translate(331,67)"/>
<path d="M0 0 C2.64 1.65 5.28 3.3 8 5 C7.67 6.32 7.34 7.64 7 9 C7 8.01 7 7.02 7 6 C6.21625 5.938125 5.4325 5.87625 4.625 5.8125 C3.75875 5.544375 2.8925 5.27625 2 5 C0.6875 2.4375 0.6875 2.4375 0 0 Z " fill="#735D69" transform="translate(318,347)"/>
<path d="M0 0 C1.33332095 2.6666419 0.67102033 4.16680303 0 7 C-1.32 7.33 -2.64 7.66 -4 8 C-2.25 2.25 -2.25 2.25 0 0 Z " fill="#E0A667" transform="translate(249,318)"/>
<path d="M0 0 C0.66 0 1.32 0 2 0 C2 1.65 2 3.3 2 5 C1.34 5 0.68 5 0 5 C-0.33 6.32 -0.66 7.64 -1 9 C-2.60031344 5.79937313 -1.03173691 3.27728194 0 0 Z " fill="#F3BF73" transform="translate(444,292)"/>
<path d="M0 0 C-0.33 2.31 -0.66 4.62 -1 7 C-1.99 5.68 -2.98 4.36 -4 3 C-4.99 3.495 -4.99 3.495 -6 4 C-5.67 3.01 -5.34 2.02 -5 1 C-3 0 -3 0 0 0 Z " fill="#685F6E" transform="translate(171,261)"/>
<path d="M0 0 C2.38564077 0.57584432 4.66682784 1.22227595 7 2 C7 3.32 7 4.64 7 6 C3.63279613 4.60667426 2.0140476 3.0210714 0 0 Z " fill="#E9AF64" transform="translate(286,220)"/>
<path d="M0 0 C0.33 0 0.66 0 1 0 C1.06058594 0.75925781 1.12117187 1.51851562 1.18359375 2.30078125 C1.26738281 3.29464844 1.35117188 4.28851563 1.4375 5.3125 C1.51871094 6.29863281 1.59992188 7.28476563 1.68359375 8.30078125 C1.91812559 11.09375599 1.91812559 11.09375599 3 14 C2.01 14 1.02 14 0 14 C0 9.38 0 4.76 0 0 Z " fill="#CCA06F" transform="translate(220,176)"/>
<path d="M0 0 C0.33 0.66 0.66 1.32 1 2 C-1.17508418 6.69360269 -1.17508418 6.69360269 -4.1875 7.8125 C-4.785625 7.874375 -5.38375 7.93625 -6 8 C-6 7.34 -6 6.68 -6 6 C-5.34 6 -4.68 6 -4 6 C-3.71125 5.38125 -3.4225 4.7625 -3.125 4.125 C-2 2 -2 2 0 0 Z " fill="#F4CB8D" transform="translate(101,115)"/>
<path d="M0 0 C0 3 0 3 -2.5 5.6875 C-3.325 6.450625 -4.15 7.21375 -5 8 C-5.99 7.67 -6.98 7.34 -8 7 C-5.36 4.69 -2.72 2.38 0 0 Z " fill="#F1CD94" transform="translate(114,102)"/>
<path d="M0 0 C0.66 0 1.32 0 2 0 C2 0.66 2 1.32 2 2 C2.639375 2.28875 3.27875 2.5775 3.9375 2.875 C6 4 6 4 7 6 C5.68 6 4.36 6 3 6 C0.8614515 3.8614515 0.57344937 2.86724686 0 0 Z " fill="#F0CA8F" transform="translate(377,95)"/>
<path d="M0 0 C0.99 0.33 1.98 0.66 3 1 C3 1.66 3 2.32 3 3 C2.360625 3.268125 1.72125 3.53625 1.0625 3.8125 C-1.33131686 4.88667752 -1.33131686 4.88667752 -2 8 C-2.66 8 -3.32 8 -4 8 C-2.87548273 5.0280615 -1.77706209 2.66559313 0 0 Z " fill="#CFA36D" transform="translate(269,277)"/>
<path d="M0 0 C2.475 0.495 2.475 0.495 5 1 C3.69593116 3.01920337 2.36176581 5.01924973 1 7 C0.67 7 0.34 7 0 7 C0 4.69 0 2.38 0 0 Z " fill="#EFAD5E" transform="translate(187,211)"/>
<path d="M0 0 C0.66 0.33 1.32 0.66 2 1 C1.67 1.66 1.34 2.32 1 3 C0.34 3 -0.32 3 -1 3 C-1.33 4.32 -1.66 5.64 -2 7 C-3.32 6.67 -4.64 6.34 -6 6 C-4.71034824 4.62437146 -3.37310707 3.29233607 -2 2 C-1.34 2 -0.68 2 0 2 C0 1.34 0 0.68 0 0 Z " fill="#F5CD8C" transform="translate(121,95)"/>
<path d="M0 0 C3.53372712 1.96318174 6.24479785 4.04070881 9 7 C6.69 6.34 4.38 5.68 2 5 C2 4.01 2 3.02 2 2 C1.34 2 0.68 2 0 2 C0 1.34 0 0.68 0 0 Z " fill="#F4CD91" transform="translate(363,84)"/>
<path d="M0 0 C2.9719385 1.12451727 5.33440687 2.22293791 8 4 C7.67 4.99 7.34 5.98 7 7 C6.01 6.34 5.02 5.68 4 5 C4 4.34 4 3.68 4 3 C2.68 2.34 1.36 1.68 0 1 C0 0.67 0 0.34 0 0 Z " fill="#F4CC91" transform="translate(117,400)"/>
<path d="M0 0 C0.99 0 1.98 0 3 0 C3.33 2.64 3.66 5.28 4 8 C1.10067643 5.60490662 0.49831724 3.68754757 0 0 Z " fill="#D59C68" transform="translate(306,320)"/>
<path d="M0 0 C2.11635213 2.57642867 3.67339287 4.62505968 4 8 C3.01 9.485 3.01 9.485 2 11 C0.80712589 7.12315913 0 4.08378077 0 0 Z " fill="#F1C88C" transform="translate(55,297)"/>
<path d="M0 0 C2.6875 0.875 2.6875 0.875 5 2 C1.77208445 4.1519437 0.71599191 4.20086443 -3 4 C-3 3.34 -3 2.68 -3 2 C-2.01 1.34 -1.02 0.68 0 0 Z " fill="#8E6F5C" transform="translate(153,282)"/>
<path d="M0 0 C1.32 0.33 2.64 0.66 4 1 C-0.625 5 -0.625 5 -4 5 C-4 4.34 -4 3.68 -4 3 C-2.68 3 -1.36 3 0 3 C0 2.01 0 1.02 0 0 Z " fill="#766364" transform="translate(319,252)"/>
<path d="M0 0 C0.66 0.33 1.32 0.66 2 1 C1.34 1.66 0.68 2.32 0 3 C-0.64767793 5.57061311 -0.64767793 5.57061311 -1 8 C-1.99 7.01 -2.98 6.02 -4 5 C-3 2 -3 2 0 0 Z " fill="#D8A76E" transform="translate(279,202)"/>
<path d="M0 0 C4.42857143 5.14285714 4.42857143 5.14285714 5 9 C4.01 8.67 3.02 8.34 2 8 C2 6.68 2 5.36 2 4 C1.34 4 0.68 4 0 4 C0 2.68 0 1.36 0 0 Z " fill="#EDC583" transform="translate(423,149)"/>
<path d="M0 0 C1.32 0 2.64 0 4 0 C4.33 3.3 4.66 6.6 5 10 C3.33333333 6.66666667 1.66666667 3.33333333 0 0 Z " fill="#E2A969" transform="translate(246,130)"/>
<path d="M0 0 C0.6875 1.8125 0.6875 1.8125 1 4 C-0.4375 5.75 -0.4375 5.75 -2 7 C-2.66 6.67 -3.32 6.34 -4 6 C-1.125 1.125 -1.125 1.125 0 0 Z " fill="#F3BA69" transform="translate(105,111)"/>
<path d="M0 0 C5.75 1.75 5.75 1.75 8 4 C5.3333581 5.33332095 3.83319697 4.67102033 1 4 C0.67 2.68 0.34 1.36 0 0 Z " fill="#F1C98D" transform="translate(323,63)"/>
<path d="" fill="#FFFFFF" transform="translate(0,0)"/>
<path d="" fill="#FFFFFF" transform="translate(0,0)"/>
<path d="" fill="#FFFFFF" transform="translate(0,0)"/>
<path d="" fill="#FFFFFF" transform="translate(0,0)"/>
<path d="" fill="#FFFFFF" transform="translate(0,0)"/>
<path d="" fill="#FFFFFF" transform="translate(0,0)"/>
<path d="" fill="#FFFFFF" transform="translate(0,0)"/>
<path d="" fill="#FFFFFF" transform="translate(0,0)"/>
<path d="" fill="#FFFFFF" transform="translate(0,0)"/>
<path d="" fill="#FFFFFF" transform="translate(0,0)"/>
<path d="" fill="#FFFFFF" transform="translate(0,0)"/>
<path d="" fill="#FFFFFF" transform="translate(0,0)"/>
<path d="" fill="#FFFFFF" transform="translate(0,0)"/>
<path d="" fill="#FFFFFF" transform="translate(0,0)"/>
<path d="" fill="#FFFFFF" transform="translate(0,0)"/>
<path d="" fill="#FFFFFF" transform="translate(0,0)"/>
<path d="" fill="#FFFFFF" transform="translate(0,0)"/>
<path d="" fill="#FFFFFF" transform="translate(0,0)"/>
<path d="" fill="#FFFFFF" transform="translate(0,0)"/>
<path d="" fill="#FFFFFF" transform="translate(0,0)"/>
<path d="" fill="#FFFFFF" transform="translate(0,0)"/>
<path d="" fill="#FFFFFF" transform="translate(0,0)"/>
<path d="" fill="#FFFFFF" transform="translate(0,0)"/>
<path d="" fill="#FFFFFF" transform="translate(0,0)"/>
<path d="" fill="#FFFFFF" transform="translate(0,0)"/>
<path d="" fill="#FFFFFF" transform="translate(0,0)"/>
<path d="" fill="#FFFFFF" transform="translate(0,0)"/>
<path d="" fill="#FFFFFF" transform="translate(0,0)"/>
<path d="" fill="#FFFFFF" transform="translate(0,0)"/>
<path d="" fill="#FFFFFF" transform="translate(0,0)"/>
<path d="" fill="#FFFFFF" transform="translate(0,0)"/>
<path d="" fill="#FFFFFF" transform="translate(0,0)"/>
<path d="" fill="#FFFFFF" transform="translate(0,0)"/>
<path d="" fill="#FFFFFF" transform="translate(0,0)"/>
<path d="" fill="#FFFFFF" transform="translate(0,0)"/>
<path d="" fill="#FFFFFF" transform="translate(0,0)"/>
<path d="" fill="#FFFFFF" transform="translate(0,0)"/>
<path d="" fill="#FFFFFF" transform="translate(0,0)"/>
<path d="" fill="#FFFFFF" transform="translate(0,0)"/>
<path d="" fill="#FFFFFF" transform="translate(0,0)"/>
<path d="" fill="#FFFFFF" transform="translate(0,0)"/>
<path d="" fill="#FFFFFF" transform="translate(0,0)"/>
<path d="" fill="#FFFFFF" transform="translate(0,0)"/>
<path d="" fill="#FFFFFF" transform="translate(0,0)"/>
<path d="" fill="#FFFFFF" transform="translate(0,0)"/>
<path d="" fill="#FFFFFF" transform="translate(0,0)"/>
<path d="" fill="#FFFFFF" transform="translate(0,0)"/>
<path d="" fill="#FFFFFF" transform="translate(0,0)"/>
<path d="" fill="#FFFFFF" transform="translate(0,0)"/>
</svg>
